<svg width="343" height="163" viewBox="0 0 343 163" fill="none" xmlns="http://www.w3.org/2000/svg">
<path d="M7.21299 154.084C7.21299 152.938 7.38966 152.048 7.74299 151.414C8.09632 150.781 8.72966 150.464 9.64299 150.464C10.5563 150.464 11.1897 150.781 11.543 151.414C11.8963 152.048 12.073 152.938 12.073 154.084C12.073 155.251 11.8963 156.154 11.543 156.794C11.1897 157.434 10.5563 157.754 9.64299 157.754C8.72299 157.754 8.08632 157.434 7.73299 156.794C7.38632 156.154 7.21299 155.251 7.21299 154.084ZM11.383 154.084C11.383 153.464 11.3397 152.941 11.253 152.514C11.1663 152.088 10.9963 151.744 10.743 151.484C10.4897 151.224 10.123 151.094 9.64299 151.094C9.16299 151.094 8.79632 151.224 8.54299 151.484C8.28966 151.744 8.11966 152.088 8.03299 152.514C7.94632 152.941 7.90299 153.464 7.90299 154.084C7.90299 154.724 7.94632 155.261 8.03299 155.694C8.11966 156.121 8.28966 156.464 8.54299 156.724C8.79632 156.984 9.16299 157.114 9.64299 157.114C10.123 157.114 10.4897 156.984 10.743 156.724C10.9963 156.464 11.1663 156.121 11.253 155.694C11.3397 155.261 11.383 154.724 11.383 154.084ZM17.6651 151.114L14.8751 157.734H14.1651L16.9851 151.174H12.9851V150.574H17.6651V151.114Z" fill="white"/>
<path d="M50.8591 151.194V150.564H52.5591V157.734H51.8491V151.194H50.8591ZM58.639 151.164H54.979V153.724C55.1457 153.491 55.389 153.301 55.709 153.154C56.029 153.001 56.3757 152.924 56.749 152.924C57.2957 152.924 57.7423 153.038 58.089 153.264C58.4357 153.484 58.6857 153.774 58.839 154.134C58.9923 154.488 59.069 154.868 59.069 155.274C59.069 155.741 58.979 156.164 58.799 156.544C58.6257 156.918 58.3557 157.214 57.989 157.434C57.629 157.654 57.179 157.764 56.639 157.764C55.9523 157.764 55.3957 157.588 54.969 157.234C54.5423 156.874 54.2823 156.391 54.189 155.784H54.879C54.9657 156.224 55.1657 156.564 55.479 156.804C55.7923 157.044 56.179 157.164 56.639 157.164C57.219 157.164 57.6557 156.994 57.949 156.654C58.249 156.308 58.399 155.851 58.399 155.284C58.399 154.731 58.249 154.301 57.949 153.994C57.649 153.681 57.219 153.524 56.659 153.524C56.2723 153.524 55.9323 153.614 55.639 153.794C55.3457 153.974 55.129 154.218 54.989 154.524H54.329V150.554H58.639V151.164Z" fill="white"/>
<path d="M117.038 157.184C118.265 156.264 119.211 155.441 119.878 154.714C120.551 153.981 120.888 153.264 120.888 152.564C120.888 152.104 120.771 151.738 120.538 151.464C120.311 151.184 119.938 151.044 119.418 151.044C118.911 151.044 118.518 151.204 118.238 151.524C117.965 151.838 117.811 152.258 117.778 152.784H117.098C117.138 152.044 117.365 151.471 117.778 151.064C118.198 150.651 118.745 150.444 119.418 150.444C120.065 150.444 120.588 150.628 120.988 150.994C121.388 151.354 121.588 151.868 121.588 152.534C121.588 153.341 121.251 154.124 120.578 154.884C119.911 155.638 119.088 156.374 118.108 157.094H121.808V157.684H117.038V157.184ZM124.291 154.014C123.877 153.881 123.561 153.671 123.341 153.384C123.127 153.098 123.021 152.751 123.021 152.344C123.021 151.984 123.111 151.664 123.291 151.384C123.477 151.098 123.747 150.874 124.101 150.714C124.454 150.548 124.877 150.464 125.371 150.464C125.864 150.464 126.287 150.548 126.641 150.714C126.994 150.874 127.261 151.098 127.441 151.384C127.627 151.664 127.721 151.984 127.721 152.344C127.721 152.744 127.611 153.091 127.391 153.384C127.177 153.678 126.864 153.888 126.451 154.014C126.904 154.128 127.261 154.344 127.521 154.664C127.781 154.984 127.911 155.374 127.911 155.834C127.911 156.261 127.804 156.634 127.591 156.954C127.384 157.268 127.087 157.511 126.701 157.684C126.321 157.858 125.877 157.944 125.371 157.944C124.864 157.944 124.417 157.858 124.031 157.684C123.651 157.511 123.354 157.268 123.141 156.954C122.934 156.634 122.831 156.261 122.831 155.834C122.831 155.374 122.961 154.984 123.221 154.664C123.481 154.344 123.837 154.128 124.291 154.014ZM127.041 152.424C127.041 151.984 126.891 151.644 126.591 151.404C126.291 151.164 125.884 151.044 125.371 151.044C124.857 151.044 124.451 151.164 124.151 151.404C123.851 151.638 123.701 151.978 123.701 152.424C123.701 152.838 123.854 153.168 124.161 153.414C124.467 153.661 124.871 153.784 125.371 153.784C125.871 153.784 126.274 153.661 126.581 153.414C126.887 153.168 127.041 152.838 127.041 152.424ZM125.371 154.324C124.824 154.324 124.377 154.448 124.031 154.694C123.684 154.941 123.511 155.314 123.511 155.814C123.511 156.294 123.677 156.671 124.011 156.944C124.344 157.218 124.797 157.354 125.371 157.354C125.937 157.354 126.387 157.218 126.721 156.944C127.054 156.664 127.221 156.288 127.221 155.814C127.221 155.321 127.047 154.951 126.701 154.704C126.361 154.451 125.917 154.324 125.371 154.324Z" fill="white"/>
<path d="M182.817 151.194V150.564H184.517V157.734H183.807V151.194H182.817ZM186.077 154.084C186.077 152.938 186.254 152.048 186.607 151.414C186.96 150.781 187.594 150.464 188.507 150.464C189.42 150.464 190.054 150.781 190.407 151.414C190.76 152.048 190.937 152.938 190.937 154.084C190.937 155.251 190.76 156.154 190.407 156.794C190.054 157.434 189.42 157.754 188.507 157.754C187.587 157.754 186.95 157.434 186.597 156.794C186.25 156.154 186.077 155.251 186.077 154.084ZM190.247 154.084C190.247 153.464 190.204 152.941 190.117 152.514C190.03 152.088 189.86 151.744 189.607 151.484C189.354 151.224 188.987 151.094 188.507 151.094C188.027 151.094 187.66 151.224 187.407 151.484C187.154 151.744 186.984 152.088 186.897 152.514C186.81 152.941 186.767 153.464 186.767 154.084C186.767 154.724 186.81 155.261 186.897 155.694C186.984 156.121 187.154 156.464 187.407 156.724C187.66 156.984 188.027 157.114 188.507 157.114C188.987 157.114 189.354 156.984 189.607 156.724C189.86 156.464 190.03 156.121 190.117 155.694C190.204 155.261 190.247 154.724 190.247 154.084Z" fill="white"/>
<path d="M248.996 157.184C250.223 156.264 251.169 155.441 251.836 154.714C252.509 153.981 252.846 153.264 252.846 152.564C252.846 152.104 252.729 151.738 252.496 151.464C252.269 151.184 251.896 151.044 251.376 151.044C250.869 151.044 250.476 151.204 250.196 151.524C249.923 151.838 249.769 152.258 249.736 152.784H249.056C249.096 152.044 249.323 151.471 249.736 151.064C250.156 150.651 250.703 150.444 251.376 150.444C252.023 150.444 252.546 150.628 252.946 150.994C253.346 151.354 253.546 151.868 253.546 152.534C253.546 153.341 253.209 154.124 252.536 154.884C251.869 155.638 251.046 156.374 250.066 157.094H253.766V157.684H248.996V157.184ZM254.719 157.184C255.945 156.264 256.892 155.441 257.559 154.714C258.232 153.981 258.569 153.264 258.569 152.564C258.569 152.104 258.452 151.738 258.219 151.464C257.992 151.184 257.619 151.044 257.099 151.044C256.592 151.044 256.199 151.204 255.919 151.524C255.645 151.838 255.492 152.258 255.459 152.784H254.779C254.819 152.044 255.045 151.471 255.459 151.064C255.879 150.651 256.425 150.444 257.099 150.444C257.745 150.444 258.269 150.628 258.669 150.994C259.069 151.354 259.269 151.868 259.269 152.534C259.269 153.341 258.932 154.124 258.259 154.884C257.592 155.638 256.769 156.374 255.789 157.094H259.489V157.684H254.719V157.184Z" fill="white"/>
<path d="M315.115 154.084C315.115 152.938 315.292 152.048 315.645 151.414C315.998 150.781 316.632 150.464 317.545 150.464C318.458 150.464 319.092 150.781 319.445 151.414C319.798 152.048 319.975 152.938 319.975 154.084C319.975 155.251 319.798 156.154 319.445 156.794C319.092 157.434 318.458 157.754 317.545 157.754C316.625 157.754 315.988 157.434 315.635 156.794C315.288 156.154 315.115 155.251 315.115 154.084ZM319.285 154.084C319.285 153.464 319.242 152.941 319.155 152.514C319.068 152.088 318.898 151.744 318.645 151.484C318.392 151.224 318.025 151.094 317.545 151.094C317.065 151.094 316.698 151.224 316.445 151.484C316.192 151.744 316.022 152.088 315.935 152.514C315.848 152.941 315.805 153.464 315.805 154.084C315.805 154.724 315.848 155.261 315.935 155.694C316.022 156.121 316.192 156.464 316.445 156.724C316.698 156.984 317.065 157.114 317.545 157.114C318.025 157.114 318.392 156.984 318.645 156.724C318.898 156.464 319.068 156.121 319.155 155.694C319.242 155.261 319.285 154.724 319.285 154.084ZM325.567 151.114L322.777 157.734H322.067L324.887 151.174H320.887V150.574H325.567V151.114Z" fill="white"/>
<path d="M28.8659 151.194V150.564H30.5659V157.734H29.8559V151.194H28.8659ZM31.7858 151.194V150.564H33.4858V157.734H32.7758V151.194H31.7858Z" fill="white"/>
<path d="M95.0452 157.184C96.2718 156.264 97.2185 155.441 97.8852 154.714C98.5585 153.981 98.8952 153.264 98.8952 152.564C98.8952 152.104 98.7785 151.738 98.5452 151.464C98.3185 151.184 97.9452 151.044 97.4252 151.044C96.9185 151.044 96.5252 151.204 96.2452 151.524C95.9718 151.838 95.8185 152.258 95.7852 152.784H95.1052C95.1452 152.044 95.3718 151.471 95.7852 151.064C96.2052 150.651 96.7518 150.444 97.4252 150.444C98.0718 150.444 98.5952 150.628 98.9952 150.994C99.3952 151.354 99.5952 151.868 99.5952 152.534C99.5952 153.341 99.2585 154.124 98.5852 154.884C97.9185 155.638 97.0952 156.374 96.1152 157.094H99.8152V157.684H95.0452V157.184ZM100.878 152.394C100.924 151.788 101.158 151.311 101.578 150.964C102.004 150.611 102.554 150.434 103.228 150.434C103.674 150.434 104.058 150.514 104.378 150.674C104.698 150.834 104.938 151.054 105.098 151.334C105.264 151.608 105.348 151.918 105.348 152.264C105.348 152.684 105.224 153.048 104.978 153.354C104.731 153.661 104.381 153.851 103.928 153.924V153.974C104.401 154.068 104.778 154.274 105.058 154.594C105.338 154.908 105.478 155.321 105.478 155.834C105.478 156.408 105.284 156.878 104.898 157.244C104.518 157.604 103.964 157.784 103.238 157.784C102.544 157.784 101.974 157.604 101.528 157.244C101.081 156.878 100.824 156.361 100.758 155.694H101.438C101.498 156.141 101.684 156.504 101.998 156.784C102.311 157.058 102.724 157.194 103.238 157.194C103.744 157.194 104.131 157.061 104.398 156.794C104.671 156.528 104.808 156.188 104.808 155.774C104.808 154.761 104.078 154.254 102.618 154.254H102.398V153.664H102.628C103.988 153.664 104.668 153.221 104.668 152.334C104.668 151.948 104.541 151.638 104.288 151.404C104.034 151.164 103.674 151.044 103.208 151.044C102.754 151.044 102.378 151.164 102.078 151.404C101.784 151.638 101.611 151.968 101.558 152.394H100.878Z" fill="white"/>
<path d="M161.164 154.084C161.164 152.938 161.341 152.048 161.694 151.414C162.047 150.781 162.681 150.464 163.594 150.464C164.507 150.464 165.141 150.781 165.494 151.414C165.847 152.048 166.024 152.938 166.024 154.084C166.024 155.251 165.847 156.154 165.494 156.794C165.141 157.434 164.507 157.754 163.594 157.754C162.674 157.754 162.037 157.434 161.684 156.794C161.337 156.154 161.164 155.251 161.164 154.084ZM165.334 154.084C165.334 153.464 165.291 152.941 165.204 152.514C165.117 152.088 164.947 151.744 164.694 151.484C164.441 151.224 164.074 151.094 163.594 151.094C163.114 151.094 162.747 151.224 162.494 151.484C162.241 151.744 162.071 152.088 161.984 152.514C161.897 152.941 161.854 153.464 161.854 154.084C161.854 154.724 161.897 155.261 161.984 155.694C162.071 156.121 162.241 156.464 162.494 156.724C162.747 156.984 163.114 157.114 163.594 157.114C164.074 157.114 164.441 156.984 164.694 156.724C164.947 156.464 165.117 156.121 165.204 155.694C165.291 155.261 165.334 154.724 165.334 154.084ZM171.446 152.314C171.3 151.448 170.796 151.014 169.936 151.014C169.283 151.014 168.793 151.268 168.466 151.774C168.14 152.281 167.99 153.111 168.016 154.264C168.15 153.864 168.403 153.551 168.776 153.324C169.156 153.091 169.59 152.974 170.076 152.974C170.776 152.974 171.33 153.191 171.736 153.624C172.15 154.051 172.356 154.641 172.356 155.394C172.356 155.834 172.27 156.234 172.096 156.594C171.93 156.948 171.67 157.231 171.316 157.444C170.97 157.658 170.536 157.764 170.016 157.764C169.023 157.764 168.336 157.448 167.956 156.814C167.583 156.181 167.396 155.284 167.396 154.124C167.396 151.658 168.243 150.424 169.936 150.424C170.576 150.424 171.08 150.601 171.446 150.954C171.813 151.301 172.03 151.754 172.096 152.314H171.446ZM169.946 153.574C169.633 153.574 169.336 153.638 169.056 153.764C168.776 153.891 168.546 154.084 168.366 154.344C168.193 154.598 168.106 154.911 168.106 155.284C168.106 155.824 168.266 156.274 168.586 156.634C168.906 156.994 169.373 157.174 169.986 157.174C170.5 157.174 170.91 157.018 171.216 156.704C171.523 156.391 171.676 155.964 171.676 155.424C171.676 154.844 171.526 154.391 171.226 154.064C170.926 153.738 170.5 153.574 169.946 153.574Z" fill="white"/>
<path d="M226.803 151.194V150.564H228.503V157.734H227.793V151.194H226.803ZM231.453 154.014C231.04 153.881 230.723 153.671 230.503 153.384C230.29 153.098 230.183 152.751 230.183 152.344C230.183 151.984 230.273 151.664 230.453 151.384C230.64 151.098 230.91 150.874 231.263 150.714C231.616 150.548 232.04 150.464 232.533 150.464C233.026 150.464 233.45 150.548 233.803 150.714C234.156 150.874 234.423 151.098 234.603 151.384C234.79 151.664 234.883 151.984 234.883 152.344C234.883 152.744 234.773 153.091 234.553 153.384C234.34 153.678 234.026 153.888 233.613 154.014C234.066 154.128 234.423 154.344 234.683 154.664C234.943 154.984 235.073 155.374 235.073 155.834C235.073 156.261 234.966 156.634 234.753 156.954C234.546 157.268 234.25 157.511 233.863 157.684C233.483 157.858 233.04 157.944 232.533 157.944C232.026 157.944 231.58 157.858 231.193 157.684C230.813 157.511 230.516 157.268 230.303 156.954C230.096 156.634 229.993 156.261 229.993 155.834C229.993 155.374 230.123 154.984 230.383 154.664C230.643 154.344 231 154.128 231.453 154.014ZM234.203 152.424C234.203 151.984 234.053 151.644 233.753 151.404C233.453 151.164 233.046 151.044 232.533 151.044C232.02 151.044 231.613 151.164 231.313 151.404C231.013 151.638 230.863 151.978 230.863 152.424C230.863 152.838 231.016 153.168 231.323 153.414C231.63 153.661 232.033 153.784 232.533 153.784C233.033 153.784 233.436 153.661 233.743 153.414C234.05 153.168 234.203 152.838 234.203 152.424ZM232.533 154.324C231.986 154.324 231.54 154.448 231.193 154.694C230.846 154.941 230.673 155.314 230.673 155.814C230.673 156.294 230.84 156.671 231.173 156.944C231.506 157.218 231.96 157.354 232.533 157.354C233.1 157.354 233.55 157.218 233.883 156.944C234.216 156.664 234.383 156.288 234.383 155.814C234.383 155.321 234.21 154.951 233.863 154.704C233.523 154.451 233.08 154.324 232.533 154.324Z" fill="white"/>
<path d="M293.122 154.084C293.122 152.938 293.299 152.048 293.652 151.414C294.006 150.781 294.639 150.464 295.552 150.464C296.466 150.464 297.099 150.781 297.452 151.414C297.806 152.048 297.982 152.938 297.982 154.084C297.982 155.251 297.806 156.154 297.452 156.794C297.099 157.434 296.466 157.754 295.552 157.754C294.632 157.754 293.996 157.434 293.642 156.794C293.296 156.154 293.122 155.251 293.122 154.084ZM297.292 154.084C297.292 153.464 297.249 152.941 297.162 152.514C297.076 152.088 296.906 151.744 296.652 151.484C296.399 151.224 296.032 151.094 295.552 151.094C295.072 151.094 294.706 151.224 294.452 151.484C294.199 151.744 294.029 152.088 293.942 152.514C293.856 152.941 293.812 153.464 293.812 154.084C293.812 154.724 293.856 155.261 293.942 155.694C294.029 156.121 294.199 156.464 294.452 156.724C294.706 156.984 295.072 157.114 295.552 157.114C296.032 157.114 296.399 156.984 296.652 156.724C296.906 156.464 297.076 156.121 297.162 155.694C297.249 155.261 297.292 154.724 297.292 154.084ZM299.144 157.184C300.371 156.264 301.318 155.441 301.984 154.714C302.658 153.981 302.994 153.264 302.994 152.564C302.994 152.104 302.878 151.738 302.644 151.464C302.418 151.184 302.044 151.044 301.524 151.044C301.018 151.044 300.624 151.204 300.344 151.524C300.071 151.838 299.918 152.258 299.884 152.784H299.204C299.244 152.044 299.471 151.471 299.884 151.064C300.304 150.651 300.851 150.444 301.524 150.444C302.171 150.444 302.694 150.628 303.094 150.994C303.494 151.354 303.694 151.868 303.694 152.534C303.694 153.341 303.358 154.124 302.684 154.884C302.018 155.638 301.194 156.374 300.214 157.094H303.914V157.684H299.144V157.184Z" fill="white"/>
<path d="M72.852 151.194V150.564H74.552V157.734H73.842V151.194H72.852ZM77.0419 155.824C77.1152 156.258 77.2819 156.591 77.5419 156.824C77.8019 157.058 78.1586 157.174 78.6119 157.174C79.2386 157.174 79.7019 156.931 80.0019 156.444C80.3086 155.951 80.4486 155.138 80.4219 154.004C80.2952 154.371 80.0519 154.661 79.6919 154.874C79.3386 155.081 78.9319 155.184 78.4719 155.184C77.7719 155.184 77.2086 154.974 76.7819 154.554C76.3619 154.134 76.1519 153.551 76.1519 152.804C76.1519 152.358 76.2386 151.954 76.4119 151.594C76.5852 151.234 76.8486 150.951 77.2019 150.744C77.5552 150.538 77.9886 150.434 78.5019 150.434C79.4486 150.434 80.1086 150.744 80.4819 151.364C80.8552 151.978 81.0419 152.861 81.0419 154.014C81.0419 155.261 80.8552 156.198 80.4819 156.824C80.1152 157.451 79.4819 157.764 78.5819 157.764C77.9219 157.764 77.4086 157.588 77.0419 157.234C76.6752 156.874 76.4586 156.404 76.3919 155.824H77.0419ZM78.5819 154.584C78.8952 154.584 79.1819 154.521 79.4419 154.394C79.7086 154.261 79.9219 154.068 80.0819 153.814C80.2419 153.561 80.3219 153.258 80.3219 152.904C80.3219 152.358 80.1652 151.908 79.8519 151.554C79.5452 151.201 79.1019 151.024 78.5219 151.024C78.0086 151.024 77.5952 151.184 77.2819 151.504C76.9752 151.824 76.8219 152.251 76.8219 152.784C76.8219 153.344 76.9752 153.784 77.2819 154.104C77.5886 154.424 78.0219 154.584 78.5819 154.584Z" fill="white"/>
<path d="M139.171 154.084C139.171 152.938 139.348 152.048 139.701 151.414C140.054 150.781 140.688 150.464 141.601 150.464C142.514 150.464 143.148 150.781 143.501 151.414C143.854 152.048 144.031 152.938 144.031 154.084C144.031 155.251 143.854 156.154 143.501 156.794C143.148 157.434 142.514 157.754 141.601 157.754C140.681 157.754 140.044 157.434 139.691 156.794C139.344 156.154 139.171 155.251 139.171 154.084ZM143.341 154.084C143.341 153.464 143.298 152.941 143.211 152.514C143.124 152.088 142.954 151.744 142.701 151.484C142.448 151.224 142.081 151.094 141.601 151.094C141.121 151.094 140.754 151.224 140.501 151.484C140.248 151.744 140.078 152.088 139.991 152.514C139.904 152.941 139.861 153.464 139.861 154.084C139.861 154.724 139.904 155.261 139.991 155.694C140.078 156.121 140.248 156.464 140.501 156.724C140.754 156.984 141.121 157.114 141.601 157.114C142.081 157.114 142.448 156.984 142.701 156.724C142.954 156.464 143.124 156.121 143.211 155.694C143.298 155.261 143.341 154.724 143.341 154.084ZM144.993 151.194V150.564H146.693V157.734H145.983V151.194H144.993Z" fill="white"/>
<path d="M204.81 151.194V150.564H206.51V157.734H205.8V151.194H204.81ZM207.76 156.034V155.504L211.4 150.604H212.23V155.424H213.3V156.034H212.23V157.734H211.54V156.034H207.76ZM211.57 151.374L208.57 155.424H211.57V151.374Z" fill="white"/>
<path d="M270.989 157.184C272.216 156.264 273.162 155.441 273.829 154.714C274.502 153.981 274.839 153.264 274.839 152.564C274.839 152.104 274.722 151.738 274.489 151.464C274.262 151.184 273.889 151.044 273.369 151.044C272.862 151.044 272.469 151.204 272.189 151.524C271.916 151.838 271.762 152.258 271.729 152.784H271.049C271.089 152.044 271.316 151.471 271.729 151.064C272.149 150.651 272.696 150.444 273.369 150.444C274.016 150.444 274.539 150.628 274.939 150.994C275.339 151.354 275.539 151.868 275.539 152.534C275.539 153.341 275.202 154.124 274.529 154.884C273.862 155.638 273.039 156.374 272.059 157.094H275.759V157.684H270.989V157.184ZM281.142 151.114L278.352 157.734H277.642L280.462 151.174H276.462V150.574H281.142V151.114Z" fill="white"/>
<path d="M336.768 151.194V150.564H338.468V157.734H337.758V151.194H336.768ZM339.688 151.194V150.564H341.388V157.734H340.678V151.194H339.688Z" fill="white"/>
<path d="M338.541 133.657L334.093 127.846C326.708 118.199 312.597 118.367 301.038 122.107C296.352 123.623 291.512 123.762 287.422 120.878C283.156 117.87 277.793 108.699 273.012 99.0885C268.364 89.7451 254.205 89.9821 250.559 99.7602V99.7602C247.078 109.096 234.122 109.747 229.723 100.807L218.494 77.9908C213.13 67.0911 197.312 67.9568 193.169 79.3768V79.3768C189.038 90.765 173.281 91.6679 167.876 80.826L152.587 50.1564C145.01 34.9575 122.866 36.3559 116.989 52.2894V52.2894C107.779 77.2617 72.4271 77.8434 62.8603 53.0053V53.0053C56.257 35.8615 31.6769 36.8412 26.4591 54.4562L2.99857 133.657" stroke="#40BA93" stroke-width="4" stroke-linecap="round"/>
</svg>
