<svg width="223" height="59" viewBox="0 0 223 59" fill="none" xmlns="http://www.w3.org/2000/svg">
<path d="M221 56.4554L220.36 55.9156C213.603 50.2181 203.976 50.5058 195.236 51.8217C192.591 52.2199 189.932 52.1172 187.636 51.072C184.788 49.7759 181.19 45.7627 178.017 41.614C174.312 36.7711 166.636 36.8812 163.586 42.1608V42.1608C160.725 47.1132 153.745 47.5589 150.277 43.0108L142.235 32.4629C138.021 26.9365 129.526 27.5296 126.121 33.588V33.588C122.729 39.6239 114.276 40.2404 110.044 34.7608L99.079 20.5645C93.1277 12.8594 81.2468 13.6963 76.4163 22.1492V22.1492C68.65 35.7392 49.106 35.9463 41.0846 22.5053V22.5053C35.4581 13.0772 21.5647 13.8266 16.985 23.8052L2 56.4554" stroke="#40BA93" stroke-width="4" stroke-linecap="round"/>
</svg>
