<svg width="340" height="350" viewBox="0 0 340 350" fill="none" xmlns="http://www.w3.org/2000/svg">
<g opacity="0.3">
<rect x="282.467" y="252.338" width="93.7258" height="93.7258" transform="rotate(150.348 282.467 252.338)" stroke="#40BA93" stroke-opacity="0.2"/>
<rect x="278.398" y="257.037" width="93.7258" height="93.7258" transform="rotate(153.048 278.398 257.037)" stroke="#40BA93" stroke-opacity="0.2"/>
<rect x="274.112" y="261.539" width="93.7258" height="93.7258" transform="rotate(155.748 274.112 261.539)" stroke="#40BA93" stroke-opacity="0.2"/>
<rect x="269.621" y="265.832" width="93.7258" height="93.7258" transform="rotate(158.448 269.621 265.832)" stroke="#40BA93" stroke-opacity="0.2"/>
<rect x="264.932" y="269.911" width="93.7257" height="93.7257" transform="rotate(161.148 264.932 269.911)" stroke="#40BA93" stroke-opacity="0.2"/>
<rect x="260.056" y="273.764" width="93.7258" height="93.7258" transform="rotate(163.848 260.056 273.764)" stroke="#40BA93" stroke-opacity="0.2"/>
<rect x="255.003" y="277.382" width="93.7258" height="93.7258" transform="rotate(166.548 255.003 277.382)" stroke="#40BA93" stroke-opacity="0.2"/>
<rect x="249.787" y="280.758" width="93.7258" height="93.7258" transform="rotate(169.248 249.787 280.758)" stroke="#40BA93" stroke-opacity="0.2"/>
<rect x="244.415" y="283.887" width="93.7258" height="93.7258" transform="rotate(171.948 244.415 283.887)" stroke="#40BA93" stroke-opacity="0.2"/>
<rect x="238.905" y="286.758" width="93.7258" height="93.7258" transform="rotate(174.648 238.905 286.758)" stroke="#40BA93" stroke-opacity="0.2"/>
<rect x="233.263" y="289.367" width="93.7258" height="93.7258" transform="rotate(177.348 233.263 289.367)" stroke="#40BA93" stroke-opacity="0.2"/>
<rect x="227.508" y="291.707" width="93.7258" height="93.7258" transform="rotate(-179.952 227.508 291.707)" stroke="#40BA93" stroke-opacity="0.2"/>
<rect x="221.646" y="293.772" width="93.7258" height="93.7258" transform="rotate(-177.252 221.646 293.772)" stroke="#40BA93" stroke-opacity="0.2"/>
<rect x="215.694" y="295.56" width="93.7258" height="93.7258" transform="rotate(-174.552 215.694 295.56)" stroke="#40BA93" stroke-opacity="0.2"/>
<rect x="209.666" y="297.065" width="93.7258" height="93.7258" transform="rotate(-171.852 209.666 297.065)" stroke="#40BA93" stroke-opacity="0.2"/>
<rect x="203.572" y="298.284" width="93.7258" height="93.7258" transform="rotate(-169.152 203.572 298.284)" stroke="#40BA93" stroke-opacity="0.2"/>
<rect x="197.424" y="299.215" width="93.7258" height="93.7258" transform="rotate(-166.452 197.424 299.215)" stroke="#40BA93" stroke-opacity="0.2"/>
<rect x="191.242" y="299.857" width="93.7258" height="93.7258" transform="rotate(-163.752 191.242 299.857)" stroke="#40BA93" stroke-opacity="0.2"/>
<rect x="185.037" y="300.205" width="93.7258" height="93.7258" transform="rotate(-161.052 185.037 300.205)" stroke="#40BA93" stroke-opacity="0.2"/>
<rect x="178.825" y="300.261" width="93.7258" height="93.7258" transform="rotate(-158.352 178.825 300.261)" stroke="#40BA93" stroke-opacity="0.2"/>
<rect x="172.614" y="300.024" width="93.7258" height="93.7258" transform="rotate(-155.652 172.614 300.024)" stroke="#40BA93" stroke-opacity="0.2"/>
<rect x="166.423" y="299.495" width="93.7258" height="93.7258" transform="rotate(-152.952 166.423 299.495)" stroke="#40BA93" stroke-opacity="0.2"/>
<rect x="160.263" y="298.675" width="93.7258" height="93.7258" transform="rotate(-150.252 160.263 298.675)" stroke="#40BA93" stroke-opacity="0.2"/>
<rect x="154.147" y="297.564" width="93.7258" height="93.7258" transform="rotate(-147.552 154.147 297.564)" stroke="#40BA93" stroke-opacity="0.2"/>
<rect x="148.094" y="296.169" width="93.7258" height="93.7258" transform="rotate(-144.852 148.094 296.169)" stroke="#40BA93" stroke-opacity="0.2"/>
<rect x="142.107" y="294.488" width="93.7258" height="93.7258" transform="rotate(-142.152 142.107 294.488)" stroke="#40BA93" stroke-opacity="0.2"/>
<rect x="136.211" y="292.527" width="93.7258" height="93.7258" transform="rotate(-139.452 136.211 292.527)" stroke="#40BA93" stroke-opacity="0.2"/>
<rect x="130.416" y="290.291" width="93.7258" height="93.7258" transform="rotate(-136.752 130.416 290.291)" stroke="#40BA93" stroke-opacity="0.2"/>
<rect x="124.727" y="287.787" width="93.7258" height="93.7258" transform="rotate(-134.052 124.727 287.787)" stroke="#40BA93" stroke-opacity="0.2"/>
<rect x="119.162" y="285.015" width="93.7258" height="93.7258" transform="rotate(-131.352 119.162 285.015)" stroke="#40BA93" stroke-opacity="0.2"/>
<rect x="113.738" y="281.983" width="93.7258" height="93.7258" transform="rotate(-128.652 113.738 281.983)" stroke="#40BA93" stroke-opacity="0.2"/>
<rect x="108.463" y="278.702" width="93.7258" height="93.7258" transform="rotate(-125.952 108.463 278.702)" stroke="#40BA93" stroke-opacity="0.2"/>
<rect x="103.343" y="275.175" width="93.7258" height="93.7258" transform="rotate(-123.252 103.343 275.175)" stroke="#40BA93" stroke-opacity="0.2"/>
<rect x="98.403" y="271.409" width="93.7257" height="93.7257" transform="rotate(-120.552 98.403 271.409)" stroke="#40BA93" stroke-opacity="0.2"/>
<rect x="93.6421" y="267.416" width="93.7257" height="93.7257" transform="rotate(-117.852 93.6421 267.416)" stroke="#40BA93" stroke-opacity="0.2"/>
<rect x="89.0721" y="263.202" width="93.7258" height="93.7258" transform="rotate(-115.152 89.0721 263.202)" stroke="#40BA93" stroke-opacity="0.2"/>
<rect x="84.7047" y="258.779" width="93.7258" height="93.7258" transform="rotate(-112.452 84.7047 258.779)" stroke="#40BA93" stroke-opacity="0.2"/>
<rect x="80.5555" y="254.155" width="93.7258" height="93.7258" transform="rotate(-109.752 80.5555 254.155)" stroke="#40BA93" stroke-opacity="0.2"/>
<rect x="76.6244" y="249.34" width="93.7258" height="93.7258" transform="rotate(-107.052 76.6244 249.34)" stroke="#40BA93" stroke-opacity="0.2"/>
<rect x="72.9269" y="244.347" width="93.7258" height="93.7258" transform="rotate(-104.352 72.9269 244.347)" stroke="#40BA93" stroke-opacity="0.2"/>
<rect x="69.4707" y="239.181" width="93.7258" height="93.7258" transform="rotate(-101.652 69.4707 239.181)" stroke="#40BA93" stroke-opacity="0.2"/>
<rect x="66.2599" y="233.86" width="93.7258" height="93.7258" transform="rotate(-98.9524 66.2599 233.86)" stroke="#40BA93" stroke-opacity="0.2"/>
<rect x="63.3019" y="228.396" width="93.7258" height="93.7258" transform="rotate(-96.2524 63.3019 228.396)" stroke="#40BA93" stroke-opacity="0.2"/>
<rect x="60.6009" y="222.796" width="93.7258" height="93.7258" transform="rotate(-93.5524 60.6009 222.796)" stroke="#40BA93" stroke-opacity="0.2"/>
<rect x="58.1722" y="217.079" width="93.7258" height="93.7258" transform="rotate(-90.8524 58.1722 217.079)" stroke="#40BA93" stroke-opacity="0.2"/>
<rect x="56.0159" y="211.249" width="93.7258" height="93.7258" transform="rotate(-88.1524 56.0159 211.249)" stroke="#40BA93" stroke-opacity="0.2"/>
<rect x="54.1357" y="205.326" width="93.7258" height="93.7258" transform="rotate(-85.4524 54.1357 205.326)" stroke="#40BA93" stroke-opacity="0.2"/>
<rect x="52.5356" y="199.321" width="93.7258" height="93.7258" transform="rotate(-82.7524 52.5356 199.321)" stroke="#40BA93" stroke-opacity="0.2"/>
<rect x="51.2195" y="193.248" width="93.7258" height="93.7258" transform="rotate(-80.0524 51.2195 193.248)" stroke="#40BA93" stroke-opacity="0.2"/>
<rect x="50.195" y="187.118" width="93.7258" height="93.7258" transform="rotate(-77.3524 50.195 187.118)" stroke="#40BA93" stroke-opacity="0.2"/>
<rect x="49.4583" y="180.947" width="93.7258" height="93.7258" transform="rotate(-74.6524 49.4583 180.947)" stroke="#40BA93" stroke-opacity="0.2"/>
<rect x="49.0092" y="174.748" width="93.7258" height="93.7258" transform="rotate(-71.9524 49.0092 174.748)" stroke="#40BA93" stroke-opacity="0.2"/>
<rect x="48.8595" y="168.534" width="93.7258" height="93.7258" transform="rotate(-69.2524 48.8595 168.534)" stroke="#40BA93" stroke-opacity="0.2"/>
<rect x="48.9975" y="162.322" width="93.7258" height="93.7258" transform="rotate(-66.5524 48.9975 162.322)" stroke="#40BA93" stroke-opacity="0.2"/>
<rect x="49.427" y="156.123" width="93.7258" height="93.7258" transform="rotate(-63.8524 49.427 156.123)" stroke="#40BA93" stroke-opacity="0.2"/>
<rect x="50.1518" y="149.952" width="93.7258" height="93.7258" transform="rotate(-61.1524 50.1518 149.952)" stroke="#40BA93" stroke-opacity="0.2"/>
<rect x="51.1643" y="143.82" width="93.7258" height="93.7258" transform="rotate(-58.4524 51.1643 143.82)" stroke="#40BA93" stroke-opacity="0.2"/>
<rect x="52.4642" y="137.743" width="93.7258" height="93.7258" transform="rotate(-55.7524 52.4642 137.743)" stroke="#40BA93" stroke-opacity="0.2"/>
<rect x="54.0517" y="131.735" width="93.7258" height="93.7258" transform="rotate(-53.0524 54.0517 131.735)" stroke="#40BA93" stroke-opacity="0.2"/>
<rect x="55.9189" y="125.807" width="93.7258" height="93.7258" transform="rotate(-50.3524 55.9189 125.807)" stroke="#40BA93" stroke-opacity="0.2"/>
<rect x="58.0618" y="119.973" width="93.7258" height="93.7258" transform="rotate(-47.6524 58.0618 119.973)" stroke="#40BA93" stroke-opacity="0.2"/>
<rect x="60.4805" y="114.249" width="93.7258" height="93.7258" transform="rotate(-44.9524 60.4805 114.249)" stroke="#40BA93" stroke-opacity="0.2"/>
<rect x="63.1633" y="108.643" width="93.7258" height="93.7258" transform="rotate(-42.2524 63.1633 108.643)" stroke="#40BA93" stroke-opacity="0.2"/>
<rect x="66.1102" y="103.169" width="93.7258" height="93.7258" transform="rotate(-39.5524 66.1102 103.169)" stroke="#40BA93" stroke-opacity="0.2"/>
<rect x="69.3093" y="97.8424" width="93.7258" height="93.7258" transform="rotate(-36.8524 69.3093 97.8424)" stroke="#40BA93" stroke-opacity="0.2"/>
<rect x="72.7531" y="92.6721" width="93.7257" height="93.7257" transform="rotate(-34.1524 72.7531 92.6721)" stroke="#40BA93" stroke-opacity="0.2"/>
<rect x="76.4413" y="87.6695" width="93.7258" height="93.7258" transform="rotate(-31.4524 76.4413 87.6695)" stroke="#40BA93" stroke-opacity="0.2"/>
<rect x="80.3586" y="82.8443" width="93.7258" height="93.7258" transform="rotate(-28.7524 80.3586 82.8443)" stroke="#40BA93" stroke-opacity="0.2"/>
<rect x="84.5008" y="78.2101" width="93.7258" height="93.7258" transform="rotate(-26.0524 84.5008 78.2101)" stroke="#40BA93" stroke-opacity="0.2"/>
<rect x="88.8565" y="73.7765" width="93.7258" height="93.7258" transform="rotate(-23.3524 88.8565 73.7765)" stroke="#40BA93" stroke-opacity="0.2"/>
<rect x="93.4137" y="69.5513" width="93.7258" height="93.7258" transform="rotate(-20.6524 93.4137 69.5513)" stroke="#40BA93" stroke-opacity="0.2"/>
<rect x="98.1649" y="65.5481" width="93.7258" height="93.7258" transform="rotate(-17.9524 98.1649 65.5481)" stroke="#40BA93" stroke-opacity="0.2"/>
<rect x="103.102" y="61.7727" width="93.7258" height="93.7258" transform="rotate(-15.2524 103.102 61.7727)" stroke="#40BA93" stroke-opacity="0.2"/>
<rect x="108.21" y="58.2329" width="93.7258" height="93.7258" transform="rotate(-12.5524 108.21 58.2329)" stroke="#40BA93" stroke-opacity="0.2"/>
<rect x="113.481" y="54.9403" width="93.7258" height="93.7258" transform="rotate(-9.85244 113.481 54.9403)" stroke="#40BA93" stroke-opacity="0.2"/>
<rect x="118.898" y="51.8967" width="93.7258" height="93.7258" transform="rotate(-7.15244 118.898 51.8967)" stroke="#40BA93" stroke-opacity="0.2"/>
<rect x="124.455" y="49.112" width="93.7258" height="93.7258" transform="rotate(-4.45245 124.455 49.112)" stroke="#40BA93" stroke-opacity="0.2"/>
<rect x="130.136" y="46.5919" width="93.7258" height="93.7258" transform="rotate(-1.75244 130.136 46.5919)" stroke="#40BA93" stroke-opacity="0.2"/>
<rect x="135.929" y="44.3441" width="93.7258" height="93.7258" transform="rotate(0.947556 135.929 44.3441)" stroke="#40BA93" stroke-opacity="0.2"/>
<rect x="141.823" y="42.3706" width="93.7258" height="93.7258" transform="rotate(3.64755 141.823 42.3706)" stroke="#40BA93" stroke-opacity="0.2"/>
</g>
</svg>
