<svg width="248" height="266" viewBox="0 0 248 266" fill="none" xmlns="http://www.w3.org/2000/svg">
<rect x="234.251" y="216.487" width="93.7258" height="93.7258" transform="rotate(150.348 234.251 216.487)" stroke="#40BA93" stroke-opacity="0.1"/>
<rect x="230.183" y="221.185" width="93.7258" height="93.7258" transform="rotate(153.048 230.183 221.185)" stroke="#40BA93" stroke-opacity="0.1"/>
<rect x="225.898" y="225.687" width="93.7258" height="93.7258" transform="rotate(155.748 225.898 225.687)" stroke="#40BA93" stroke-opacity="0.1"/>
<rect x="221.406" y="229.982" width="93.7258" height="93.7258" transform="rotate(158.448 221.406 229.982)" stroke="#40BA93" stroke-opacity="0.1"/>
<rect x="216.718" y="234.06" width="93.7257" height="93.7257" transform="rotate(161.148 216.718 234.06)" stroke="#40BA93" stroke-opacity="0.1"/>
<rect x="211.844" y="237.913" width="93.7258" height="93.7258" transform="rotate(163.848 211.844 237.913)" stroke="#40BA93" stroke-opacity="0.1"/>
<rect x="206.789" y="241.531" width="93.7258" height="93.7258" transform="rotate(166.548 206.789 241.531)" stroke="#40BA93" stroke-opacity="0.1"/>
<rect x="201.574" y="244.908" width="93.7258" height="93.7258" transform="rotate(169.248 201.574 244.908)" stroke="#40BA93" stroke-opacity="0.1"/>
<rect x="196.203" y="248.035" width="93.7258" height="93.7258" transform="rotate(171.948 196.203 248.035)" stroke="#40BA93" stroke-opacity="0.1"/>
<rect x="190.691" y="250.908" width="93.7258" height="93.7258" transform="rotate(174.648 190.691 250.908)" stroke="#40BA93" stroke-opacity="0.1"/>
<rect x="185.051" y="253.516" width="93.7258" height="93.7258" transform="rotate(177.348 185.051 253.516)" stroke="#40BA93" stroke-opacity="0.1"/>
<rect x="179.294" y="255.855" width="93.7258" height="93.7258" transform="rotate(-179.952 179.294 255.855)" stroke="#40BA93" stroke-opacity="0.1"/>
<rect x="173.432" y="257.921" width="93.7258" height="93.7258" transform="rotate(-177.252 173.432 257.921)" stroke="#40BA93" stroke-opacity="0.1"/>
<rect x="167.479" y="259.709" width="93.7258" height="93.7258" transform="rotate(-174.552 167.479 259.709)" stroke="#40BA93" stroke-opacity="0.1"/>
<rect x="161.451" y="261.213" width="93.7258" height="93.7258" transform="rotate(-171.852 161.451 261.213)" stroke="#40BA93" stroke-opacity="0.1"/>
<rect x="155.358" y="262.432" width="93.7258" height="93.7258" transform="rotate(-169.152 155.358 262.432)" stroke="#40BA93" stroke-opacity="0.1"/>
<rect x="149.211" y="263.365" width="93.7258" height="93.7258" transform="rotate(-166.452 149.211 263.365)" stroke="#40BA93" stroke-opacity="0.1"/>
<rect x="143.03" y="264.005" width="93.7258" height="93.7258" transform="rotate(-163.752 143.03 264.005)" stroke="#40BA93" stroke-opacity="0.1"/>
<rect x="136.826" y="264.353" width="93.7258" height="93.7258" transform="rotate(-161.052 136.826 264.353)" stroke="#40BA93" stroke-opacity="0.1"/>
<rect x="130.611" y="264.409" width="93.7258" height="93.7258" transform="rotate(-158.352 130.611 264.409)" stroke="#40BA93" stroke-opacity="0.1"/>
<rect x="124.401" y="264.172" width="93.7258" height="93.7258" transform="rotate(-155.652 124.401 264.172)" stroke="#40BA93" stroke-opacity="0.1"/>
<rect x="118.208" y="263.643" width="93.7258" height="93.7258" transform="rotate(-152.952 118.208 263.643)" stroke="#40BA93" stroke-opacity="0.1"/>
<rect x="112.051" y="262.823" width="93.7258" height="93.7258" transform="rotate(-150.252 112.051 262.823)" stroke="#40BA93" stroke-opacity="0.1"/>
<rect x="105.934" y="261.713" width="93.7258" height="93.7258" transform="rotate(-147.552 105.934 261.713)" stroke="#40BA93" stroke-opacity="0.1"/>
<rect x="99.879" y="260.317" width="93.7258" height="93.7258" transform="rotate(-144.852 99.879 260.317)" stroke="#40BA93" stroke-opacity="0.1"/>
<rect x="93.8952" y="258.637" width="93.7258" height="93.7258" transform="rotate(-142.152 93.8952 258.637)" stroke="#40BA93" stroke-opacity="0.1"/>
<rect x="87.9983" y="256.677" width="93.7258" height="93.7258" transform="rotate(-139.452 87.9983 256.677)" stroke="#40BA93" stroke-opacity="0.1"/>
<rect x="82.2013" y="254.441" width="93.7258" height="93.7258" transform="rotate(-136.752 82.2013 254.441)" stroke="#40BA93" stroke-opacity="0.1"/>
<rect x="76.5136" y="251.935" width="93.7258" height="93.7258" transform="rotate(-134.052 76.5136 251.935)" stroke="#40BA93" stroke-opacity="0.1"/>
<rect x="70.9506" y="249.164" width="93.7258" height="93.7258" transform="rotate(-131.352 70.9506 249.164)" stroke="#40BA93" stroke-opacity="0.1"/>
<rect x="65.5262" y="246.132" width="93.7258" height="93.7258" transform="rotate(-128.652 65.5262 246.132)" stroke="#40BA93" stroke-opacity="0.1"/>
<rect x="60.249" y="242.851" width="93.7258" height="93.7258" transform="rotate(-125.952 60.249 242.851)" stroke="#40BA93" stroke-opacity="0.1"/>
<rect x="55.1304" y="239.323" width="93.7258" height="93.7258" transform="rotate(-123.252 55.1304 239.323)" stroke="#40BA93" stroke-opacity="0.1"/>
<rect x="50.1883" y="235.559" width="93.7257" height="93.7257" transform="rotate(-120.552 50.1883 235.559)" stroke="#40BA93" stroke-opacity="0.1"/>
<rect x="45.4275" y="231.566" width="93.7257" height="93.7257" transform="rotate(-117.852 45.4275 231.566)" stroke="#40BA93" stroke-opacity="0.1"/>
<rect x="40.8581" y="227.351" width="93.7258" height="93.7258" transform="rotate(-115.152 40.8581 227.351)" stroke="#40BA93" stroke-opacity="0.1"/>
<rect x="36.4927" y="222.928" width="93.7258" height="93.7258" transform="rotate(-112.452 36.4927 222.928)" stroke="#40BA93" stroke-opacity="0.1"/>
<rect x="32.3407" y="218.304" width="93.7258" height="93.7258" transform="rotate(-109.752 32.3407 218.304)" stroke="#40BA93" stroke-opacity="0.1"/>
<rect x="28.4112" y="213.489" width="93.7258" height="93.7258" transform="rotate(-107.052 28.4112 213.489)" stroke="#40BA93" stroke-opacity="0.1"/>
<rect x="24.7141" y="208.495" width="93.7258" height="93.7258" transform="rotate(-104.352 24.7141 208.495)" stroke="#40BA93" stroke-opacity="0.1"/>
<rect x="21.2558" y="203.33" width="93.7258" height="93.7258" transform="rotate(-101.652 21.2558 203.33)" stroke="#40BA93" stroke-opacity="0.1"/>
<rect x="18.0448" y="198.009" width="93.7258" height="93.7258" transform="rotate(-98.9524 18.0448 198.009)" stroke="#40BA93" stroke-opacity="0.1"/>
<rect x="15.0867" y="192.545" width="93.7258" height="93.7258" transform="rotate(-96.2524 15.0867 192.545)" stroke="#40BA93" stroke-opacity="0.1"/>
<rect x="12.3892" y="186.945" width="93.7258" height="93.7258" transform="rotate(-93.5524 12.3892 186.945)" stroke="#40BA93" stroke-opacity="0.1"/>
<rect x="9.95869" y="181.227" width="93.7258" height="93.7258" transform="rotate(-90.8524 9.95869 181.227)" stroke="#40BA93" stroke-opacity="0.1"/>
<rect x="7.80285" y="175.397" width="93.7258" height="93.7258" transform="rotate(-88.1524 7.80285 175.397)" stroke="#40BA93" stroke-opacity="0.1"/>
<rect x="5.92345" y="169.475" width="93.7258" height="93.7258" transform="rotate(-85.4524 5.92345 169.475)" stroke="#40BA93" stroke-opacity="0.1"/>
<rect x="4.32239" y="163.469" width="93.7258" height="93.7258" transform="rotate(-82.7524 4.32239 163.469)" stroke="#40BA93" stroke-opacity="0.1"/>
<rect x="3.0072" y="157.397" width="93.7258" height="93.7258" transform="rotate(-80.0524 3.0072 157.397)" stroke="#40BA93" stroke-opacity="0.1"/>
<rect x="1.98077" y="151.267" width="93.7258" height="93.7258" transform="rotate(-77.3524 1.98077 151.267)" stroke="#40BA93" stroke-opacity="0.1"/>
<rect x="1.24305" y="145.095" width="93.7258" height="93.7258" transform="rotate(-74.6524 1.24305 145.095)" stroke="#40BA93" stroke-opacity="0.1"/>
<rect x="0.796685" y="138.897" width="93.7258" height="93.7258" transform="rotate(-71.9524 0.796685 138.897)" stroke="#40BA93" stroke-opacity="0.1"/>
<rect x="0.644701" y="132.684" width="93.7258" height="93.7258" transform="rotate(-69.2524 0.644701 132.684)" stroke="#40BA93" stroke-opacity="0.1"/>
<rect x="0.784132" y="126.472" width="93.7258" height="93.7258" transform="rotate(-66.5524 0.784132 126.472)" stroke="#40BA93" stroke-opacity="0.1"/>
<rect x="1.21397" y="120.272" width="93.7258" height="93.7258" transform="rotate(-63.8524 1.21397 120.272)" stroke="#40BA93" stroke-opacity="0.1"/>
<rect x="1.93713" y="114.1" width="93.7258" height="93.7258" transform="rotate(-61.1524 1.93713 114.1)" stroke="#40BA93" stroke-opacity="0.1"/>
<rect x="2.95065" y="107.968" width="93.7258" height="93.7258" transform="rotate(-58.4524 2.95065 107.968)" stroke="#40BA93" stroke-opacity="0.1"/>
<rect x="4.25255" y="101.892" width="93.7258" height="93.7258" transform="rotate(-55.7524 4.25255 101.892)" stroke="#40BA93" stroke-opacity="0.1"/>
<rect x="5.83917" y="95.8829" width="93.7258" height="93.7258" transform="rotate(-53.0524 5.83917 95.8829)" stroke="#40BA93" stroke-opacity="0.1"/>
<rect x="7.70476" y="89.9555" width="93.7258" height="93.7258" transform="rotate(-50.3524 7.70476 89.9555)" stroke="#40BA93" stroke-opacity="0.1"/>
<rect x="9.84917" y="84.123" width="93.7258" height="93.7258" transform="rotate(-47.6524 9.84917 84.123)" stroke="#40BA93" stroke-opacity="0.1"/>
<rect x="12.2659" y="78.3971" width="93.7258" height="93.7258" transform="rotate(-44.9524 12.2659 78.3971)" stroke="#40BA93" stroke-opacity="0.1"/>
<rect x="14.9492" y="72.7917" width="93.7258" height="93.7258" transform="rotate(-42.2524 14.9492 72.7917)" stroke="#40BA93" stroke-opacity="0.1"/>
<rect x="17.8962" y="67.3186" width="93.7258" height="93.7258" transform="rotate(-39.5524 17.8962 67.3186)" stroke="#40BA93" stroke-opacity="0.1"/>
<rect x="21.0945" y="61.9908" width="93.7258" height="93.7258" transform="rotate(-36.8524 21.0945 61.9908)" stroke="#40BA93" stroke-opacity="0.1"/>
<rect x="24.5404" y="56.8206" width="93.7257" height="93.7257" transform="rotate(-34.1524 24.5404 56.8206)" stroke="#40BA93" stroke-opacity="0.1"/>
<rect x="28.2272" y="51.818" width="93.7258" height="93.7258" transform="rotate(-31.4524 28.2272 51.818)" stroke="#40BA93" stroke-opacity="0.1"/>
<rect x="32.1454" y="46.9933" width="93.7258" height="93.7258" transform="rotate(-28.7524 32.1454 46.9933)" stroke="#40BA93" stroke-opacity="0.1"/>
<rect x="36.2866" y="42.3585" width="93.7258" height="93.7258" transform="rotate(-26.0524 36.2866 42.3585)" stroke="#40BA93" stroke-opacity="0.1"/>
<rect x="40.641" y="37.9254" width="93.7258" height="93.7258" transform="rotate(-23.3524 40.641 37.9254)" stroke="#40BA93" stroke-opacity="0.1"/>
<rect x="45.1995" y="33.7012" width="93.7258" height="93.7258" transform="rotate(-20.6524 45.1995 33.7012)" stroke="#40BA93" stroke-opacity="0.1"/>
<rect x="49.9513" y="29.698" width="93.7258" height="93.7258" transform="rotate(-17.9524 49.9513 29.698)" stroke="#40BA93" stroke-opacity="0.1"/>
<rect x="54.8882" y="25.9226" width="93.7258" height="93.7258" transform="rotate(-15.2524 54.8882 25.9226)" stroke="#40BA93" stroke-opacity="0.1"/>
<rect x="59.9958" y="22.3823" width="93.7258" height="93.7258" transform="rotate(-12.5524 59.9958 22.3823)" stroke="#40BA93" stroke-opacity="0.1"/>
<rect x="65.2656" y="19.0887" width="93.7258" height="93.7258" transform="rotate(-9.85244 65.2656 19.0887)" stroke="#40BA93" stroke-opacity="0.1"/>
<rect x="70.6862" y="16.0452" width="93.7258" height="93.7258" transform="rotate(-7.15244 70.6862 16.0452)" stroke="#40BA93" stroke-opacity="0.1"/>
<rect x="76.2406" y="13.2614" width="93.7258" height="93.7258" transform="rotate(-4.45245 76.2406 13.2614)" stroke="#40BA93" stroke-opacity="0.1"/>
<rect x="81.9212" y="10.7418" width="93.7258" height="93.7258" transform="rotate(-1.75244 81.9212 10.7418)" stroke="#40BA93" stroke-opacity="0.1"/>
<rect x="87.7138" y="8.49306" width="93.7258" height="93.7258" transform="rotate(0.947556 87.7138 8.49306)" stroke="#40BA93" stroke-opacity="0.1"/>
<rect x="93.608" y="6.51908" width="93.7258" height="93.7258" transform="rotate(3.64755 93.608 6.51908)" stroke="#40BA93" stroke-opacity="0.1"/>
<g filter="url(#filter0_d_23_14)">
<path d="M233.045 168.92C235.277 169.749 237.766 168.615 238.505 166.352C243.879 149.887 245.183 132.341 242.274 115.223C239.124 96.6871 231.146 79.3085 219.142 64.8374C207.138 50.3663 191.534 39.3135 173.899 32.7923C157.614 26.77 140.129 24.8086 122.954 27.0477C120.594 27.3555 119.019 29.5927 119.421 31.9387V31.9387C119.824 34.2847 122.052 35.8504 124.413 35.551C140.093 33.5629 156.045 35.3801 170.909 40.877C187.123 46.8729 201.471 57.0353 212.508 70.3406C223.544 83.646 230.88 99.6245 233.776 116.667C236.431 132.291 235.269 148.304 230.418 163.347C229.687 165.612 230.814 168.091 233.045 168.92V168.92Z" fill="#40BA93"/>
</g>
<g filter="url(#filter1_d_23_14)">
<path d="M113.886 33.1415C113.343 30.7711 110.979 29.2805 108.632 29.9203C93.394 34.0763 79.2457 41.5602 67.2173 51.8535C55.1889 62.1468 45.6086 74.9686 39.1477 89.3818C38.153 91.6008 39.2603 94.1675 41.5184 95.0701V95.0701C43.7764 95.9726 46.3295 94.869 47.3324 92.6536C53.2594 79.5611 61.9965 67.9117 72.943 58.5443C83.8895 49.1769 96.749 42.3449 110.6 38.5123C112.944 37.8638 114.429 35.5119 113.886 33.1415V33.1415Z" fill="#DB1BB1"/>
</g>
<g filter="url(#filter2_d_23_14)">
<path d="M39.0382 101.983C36.7214 101.244 34.235 102.522 33.5922 104.867C28.5104 123.408 28.5182 142.978 33.6148 161.515C34.2595 163.86 36.7468 165.135 39.0631 164.395V164.395C41.3794 163.654 42.6465 161.178 42.0105 158.831C37.4606 142.04 37.4536 124.339 41.9901 107.545C42.6242 105.197 41.3551 102.722 39.0382 101.983V101.983Z" fill="#EAD200"/>
</g>
<g filter="url(#filter3_d_23_14)">
<path d="M41.7632 171.837C39.5109 172.754 38.4201 175.327 39.4289 177.54C47.4042 195.032 59.9472 210.055 75.7355 221.023C77.7326 222.411 80.4596 221.797 81.7638 219.744V219.744C83.068 217.692 82.4547 214.979 80.4627 213.584C66.2127 203.606 54.8678 190.018 47.5926 174.216C46.5756 172.007 44.0155 170.92 41.7632 171.837V171.837Z" fill="#DB1B60"/>
</g>
<g filter="url(#filter4_d_23_14)">
<path d="M86.1727 222.393C84.973 224.508 85.7115 227.204 87.8743 228.316C100.416 234.762 114.108 238.665 128.163 239.802C130.587 239.998 132.636 238.097 132.732 235.667V235.667C132.828 233.237 130.935 231.199 128.512 230.994C115.86 229.924 103.536 226.411 92.2224 220.649C90.0555 219.545 87.3724 220.278 86.1727 222.393V222.393Z" fill="#9018EE"/>
</g>
<g filter="url(#filter5_d_23_14)">
<path d="M138.376 235.734C138.414 238.166 140.417 240.116 142.845 239.978C156.923 239.18 170.705 235.607 183.398 229.464C185.587 228.405 186.39 225.727 185.241 223.584V223.584C184.093 221.44 181.428 220.643 179.235 221.694C167.786 227.183 155.381 230.399 142.708 231.165C140.28 231.312 138.339 233.303 138.376 235.734V235.734Z" fill="#1BB8DB"/>
</g>
<g filter="url(#filter6_d_23_14)">
<path d="M189.805 220.679C191.14 222.883 194.016 223.596 196.16 222.166C204.031 216.916 211.171 210.645 217.394 203.517C219.088 201.575 218.753 198.632 216.739 197.023V197.023C214.726 195.415 211.798 195.751 210.095 197.686C204.568 203.964 198.258 209.506 191.319 214.176C189.181 215.615 188.47 218.474 189.805 220.679V220.679Z" fill="#EA8C00"/>
</g>
<g filter="url(#filter7_d_23_14)">
<path d="M220.703 191.875C222.773 193.324 225.636 192.826 226.995 190.695C229.036 187.496 230.905 184.191 232.594 180.793C233.72 178.53 232.672 175.82 230.363 174.792V174.792C228.053 173.765 225.358 174.809 224.223 177.068C222.783 179.935 221.203 182.73 219.488 185.441C218.137 187.578 218.632 190.426 220.703 191.875V191.875Z" fill="#0885F8"/>
</g>
<path d="M95.9178 85.3639V86.1759H93.2018V95.1499H92.2218V86.1759H89.4918V85.3639H95.9178ZM100.811 95.2619C100.093 95.2619 99.4439 95.1032 98.8652 94.7859C98.2959 94.4592 97.8432 94.0019 97.5072 93.4139C97.1805 92.8166 97.0172 92.1212 97.0172 91.3279C97.0172 90.5346 97.1852 89.8439 97.5212 89.2559C97.8572 88.6586 98.3145 88.2012 98.8932 87.8839C99.4719 87.5572 100.121 87.3939 100.839 87.3939C101.558 87.3939 102.207 87.5572 102.785 87.8839C103.373 88.2012 103.831 88.6586 104.157 89.2559C104.493 89.8439 104.661 90.5346 104.661 91.3279C104.661 92.1119 104.493 92.8026 104.157 93.3999C103.821 93.9972 103.359 94.4592 102.771 94.7859C102.183 95.1032 101.53 95.2619 100.811 95.2619ZM100.811 94.4079C101.315 94.4079 101.782 94.2959 102.211 94.0719C102.641 93.8386 102.986 93.4932 103.247 93.0359C103.518 92.5692 103.653 91.9999 103.653 91.3279C103.653 90.6559 103.523 90.0912 103.261 89.6339C103 89.1672 102.655 88.8219 102.225 88.5979C101.796 88.3646 101.329 88.2479 100.825 88.2479C100.321 88.2479 99.8545 88.3646 99.4252 88.5979C98.9959 88.8219 98.6505 89.1672 98.3892 89.6339C98.1372 90.0912 98.0112 90.6559 98.0112 91.3279C98.0112 91.9999 98.1372 92.5692 98.3892 93.0359C98.6505 93.4932 98.9912 93.8386 99.4112 94.0719C99.8405 94.2959 100.307 94.4079 100.811 94.4079ZM107.722 88.3319V93.0779C107.722 93.5446 107.81 93.8666 107.988 94.0439C108.165 94.2212 108.478 94.3099 108.926 94.3099H109.822V95.1499H108.772C108.081 95.1499 107.568 94.9912 107.232 94.6739C106.896 94.3472 106.728 93.8152 106.728 93.0779V88.3319H105.664V87.5059H106.728V85.5879H107.722V87.5059H109.822V88.3319H107.722ZM110.99 91.3139C110.99 90.5299 111.144 89.8439 111.452 89.2559C111.769 88.6586 112.203 88.2012 112.754 87.8839C113.314 87.5572 113.944 87.3939 114.644 87.3939C115.372 87.3939 115.997 87.5619 116.52 87.8979C117.052 88.2339 117.435 88.6632 117.668 89.1859V87.5059H118.648V95.1499H117.668V93.4559C117.425 93.9786 117.038 94.4126 116.506 94.7579C115.983 95.0939 115.358 95.2619 114.63 95.2619C113.939 95.2619 113.314 95.0986 112.754 94.7719C112.203 94.4452 111.769 93.9832 111.452 93.3859C111.144 92.7886 110.99 92.0979 110.99 91.3139ZM117.668 91.3279C117.668 90.7119 117.542 90.1706 117.29 89.7039C117.038 89.2372 116.693 88.8779 116.254 88.6259C115.825 88.3739 115.349 88.2479 114.826 88.2479C114.285 88.2479 113.799 88.3692 113.37 88.6119C112.941 88.8546 112.6 89.2092 112.348 89.6759C112.105 90.1332 111.984 90.6792 111.984 91.3139C111.984 91.9392 112.105 92.4899 112.348 92.9659C112.6 93.4326 112.941 93.7919 113.37 94.0439C113.799 94.2866 114.285 94.4079 114.826 94.4079C115.349 94.4079 115.825 94.2819 116.254 94.0299C116.693 93.7779 117.038 93.4186 117.29 92.9519C117.542 92.4852 117.668 91.9439 117.668 91.3279ZM121.865 84.7899V95.1499H120.885V84.7899H121.865ZM128.892 89.1999C129.144 88.6679 129.531 88.2339 130.054 87.8979C130.586 87.5619 131.211 87.3939 131.93 87.3939C132.63 87.3939 133.255 87.5572 133.806 87.8839C134.357 88.2012 134.786 88.6586 135.094 89.2559C135.411 89.8439 135.57 90.5299 135.57 91.3139C135.57 92.0979 135.411 92.7886 135.094 93.3859C134.786 93.9832 134.352 94.4452 133.792 94.7719C133.241 95.0986 132.621 95.2619 131.93 95.2619C131.202 95.2619 130.572 95.0986 130.04 94.7719C129.517 94.4359 129.135 94.0019 128.892 93.4699V95.1499H127.926V84.7899H128.892V89.1999ZM134.576 91.3139C134.576 90.6792 134.45 90.1332 134.198 89.6759C133.955 89.2092 133.619 88.8546 133.19 88.6119C132.761 88.3692 132.275 88.2479 131.734 88.2479C131.211 88.2479 130.731 88.3739 130.292 88.6259C129.863 88.8779 129.522 89.2372 129.27 89.7039C129.018 90.1706 128.892 90.7119 128.892 91.3279C128.892 91.9439 129.018 92.4852 129.27 92.9519C129.522 93.4186 129.863 93.7779 130.292 94.0299C130.731 94.2819 131.211 94.4079 131.734 94.4079C132.275 94.4079 132.761 94.2866 133.19 94.0439C133.619 93.7919 133.955 93.4326 134.198 92.9659C134.45 92.4899 134.576 91.9392 134.576 91.3139ZM136.925 91.3139C136.925 90.5299 137.079 89.8439 137.387 89.2559C137.705 88.6586 138.139 88.2012 138.689 87.8839C139.249 87.5572 139.879 87.3939 140.579 87.3939C141.307 87.3939 141.933 87.5619 142.455 87.8979C142.987 88.2339 143.37 88.6632 143.603 89.1859V87.5059H144.583V95.1499H143.603V93.4559C143.361 93.9786 142.973 94.4126 142.441 94.7579C141.919 95.0939 141.293 95.2619 140.565 95.2619C139.875 95.2619 139.249 95.0986 138.689 94.7719C138.139 94.4452 137.705 93.9832 137.387 93.3859C137.079 92.7886 136.925 92.0979 136.925 91.3139ZM143.603 91.3279C143.603 90.7119 143.477 90.1706 143.225 89.7039C142.973 89.2372 142.628 88.8779 142.189 88.6259C141.76 88.3739 141.284 88.2479 140.761 88.2479C140.22 88.2479 139.735 88.3692 139.305 88.6119C138.876 88.8546 138.535 89.2092 138.283 89.6759C138.041 90.1332 137.919 90.6792 137.919 91.3139C137.919 91.9392 138.041 92.4899 138.283 92.9659C138.535 93.4326 138.876 93.7919 139.305 94.0439C139.735 94.2866 140.22 94.4079 140.761 94.4079C141.284 94.4079 141.76 94.2819 142.189 94.0299C142.628 93.7779 142.973 93.4186 143.225 92.9519C143.477 92.4852 143.603 91.9439 143.603 91.3279ZM147.801 84.7899V95.1499H146.821V84.7899H147.801ZM149.572 91.3139C149.572 90.5299 149.726 89.8439 150.034 89.2559C150.351 88.6586 150.785 88.2012 151.336 87.8839C151.896 87.5572 152.526 87.3939 153.226 87.3939C153.954 87.3939 154.579 87.5619 155.102 87.8979C155.634 88.2339 156.017 88.6632 156.25 89.1859V87.5059H157.23V95.1499H156.25V93.4559C156.007 93.9786 155.62 94.4126 155.088 94.7579C154.565 95.0939 153.94 95.2619 153.212 95.2619C152.521 95.2619 151.896 95.0986 151.336 94.7719C150.785 94.4452 150.351 93.9832 150.034 93.3859C149.726 92.7886 149.572 92.0979 149.572 91.3139ZM156.25 91.3279C156.25 90.7119 156.124 90.1706 155.872 89.7039C155.62 89.2372 155.275 88.8779 154.836 88.6259C154.407 88.3739 153.931 88.2479 153.408 88.2479C152.867 88.2479 152.381 88.3692 151.952 88.6119C151.523 88.8546 151.182 89.2092 150.93 89.6759C150.687 90.1332 150.566 90.6792 150.566 91.3139C150.566 91.9392 150.687 92.4899 150.93 92.9659C151.182 93.4326 151.523 93.7919 151.952 94.0439C152.381 94.2866 152.867 94.4079 153.408 94.4079C153.931 94.4079 154.407 94.2819 154.836 94.0299C155.275 93.7779 155.62 93.4186 155.872 92.9519C156.124 92.4852 156.25 91.9439 156.25 91.3279ZM163.051 87.3659C163.966 87.3659 164.713 87.6506 165.291 88.2199C165.87 88.7799 166.159 89.5966 166.159 90.6699V95.1499H165.193V90.7819C165.193 89.9512 164.983 89.3166 164.563 88.8779C164.153 88.4392 163.588 88.2199 162.869 88.2199C162.132 88.2199 161.544 88.4532 161.105 88.9199C160.667 89.3866 160.447 90.0726 160.447 90.9779V95.1499H159.467V87.5059H160.447V88.8079C160.69 88.3412 161.04 87.9866 161.497 87.7439C161.955 87.4919 162.473 87.3659 163.051 87.3659ZM167.879 91.3279C167.879 90.5346 168.037 89.8439 168.355 89.2559C168.672 88.6586 169.111 88.2012 169.671 87.8839C170.231 87.5572 170.87 87.3939 171.589 87.3939C172.531 87.3939 173.306 87.6272 173.913 88.0939C174.529 88.5606 174.925 89.1952 175.103 89.9979H174.053C173.922 89.4472 173.637 89.0179 173.199 88.7099C172.769 88.3926 172.233 88.2339 171.589 88.2339C171.075 88.2339 170.613 88.3506 170.203 88.5839C169.792 88.8172 169.465 89.1672 169.223 89.6339C168.989 90.0912 168.873 90.6559 168.873 91.3279C168.873 91.9999 168.989 92.5692 169.223 93.0359C169.465 93.5026 169.792 93.8526 170.203 94.0859C170.613 94.3192 171.075 94.4359 171.589 94.4359C172.233 94.4359 172.769 94.2819 173.199 93.9739C173.637 93.6566 173.922 93.2179 174.053 92.6579H175.103C174.925 93.4419 174.529 94.0719 173.913 94.5479C173.297 95.0239 172.522 95.2619 171.589 95.2619C170.87 95.2619 170.231 95.1032 169.671 94.7859C169.111 94.4592 168.672 94.0019 168.355 93.4139C168.037 92.8166 167.879 92.1212 167.879 91.3279ZM183.828 90.9359C183.828 91.2719 183.819 91.5286 183.8 91.7059H177.458C177.486 92.2846 177.626 92.7792 177.878 93.1899C178.13 93.6006 178.462 93.9132 178.872 94.1279C179.283 94.3332 179.731 94.4359 180.216 94.4359C180.851 94.4359 181.383 94.2819 181.812 93.9739C182.251 93.6659 182.54 93.2506 182.68 92.7279H183.716C183.53 93.4746 183.128 94.0859 182.512 94.5619C181.906 95.0286 181.14 95.2619 180.216 95.2619C179.498 95.2619 178.854 95.1032 178.284 94.7859C177.715 94.4592 177.267 94.0019 176.94 93.4139C176.623 92.8166 176.464 92.1212 176.464 91.3279C176.464 90.5346 176.623 89.8392 176.94 89.2419C177.258 88.6446 177.701 88.1872 178.27 87.8699C178.84 87.5526 179.488 87.3939 180.216 87.3939C180.944 87.3939 181.579 87.5526 182.12 87.8699C182.671 88.1872 183.091 88.6166 183.38 89.1579C183.679 89.6899 183.828 90.2826 183.828 90.9359ZM182.834 90.9079C182.844 90.3386 182.727 89.8532 182.484 89.4519C182.251 89.0506 181.929 88.7472 181.518 88.5419C181.108 88.3366 180.66 88.2339 180.174 88.2339C179.446 88.2339 178.826 88.4672 178.312 88.9339C177.799 89.4006 177.514 90.0586 177.458 90.9079H182.834Z" fill="white"/>
<path d="M91.6964 170.29V171.214H86.9084V170.29H91.6964ZM99.1458 172.858C99.1458 173.242 99.0498 173.61 98.8578 173.962C98.6658 174.306 98.3818 174.594 98.0058 174.826C97.6378 175.058 97.1938 175.19 96.6738 175.222V176.194H96.0258V175.222C95.2978 175.158 94.7058 174.926 94.2498 174.526C93.7938 174.118 93.5618 173.602 93.5538 172.978H94.7178C94.7498 173.314 94.8738 173.606 95.0898 173.854C95.3138 174.102 95.6258 174.258 96.0258 174.322V171.322C95.4898 171.186 95.0578 171.046 94.7298 170.902C94.4018 170.758 94.1218 170.534 93.8898 170.23C93.6578 169.926 93.5418 169.518 93.5418 169.006C93.5418 168.358 93.7658 167.822 94.2138 167.398C94.6698 166.974 95.2738 166.738 96.0258 166.69V165.694H96.6738V166.69C97.3538 166.746 97.9018 166.966 98.3178 167.35C98.7338 167.726 98.9738 168.218 99.0378 168.826H97.8738C97.8338 168.546 97.7098 168.294 97.5018 168.07C97.2938 167.838 97.0178 167.686 96.6738 167.614V170.542C97.2018 170.678 97.6298 170.818 97.9578 170.962C98.2938 171.098 98.5738 171.318 98.7978 171.622C99.0298 171.926 99.1458 172.338 99.1458 172.858ZM94.6578 168.946C94.6578 169.338 94.7738 169.638 95.0058 169.846C95.2378 170.054 95.5778 170.226 96.0258 170.362V167.59C95.6098 167.63 95.2778 167.766 95.0298 167.998C94.7818 168.222 94.6578 168.538 94.6578 168.946ZM96.6738 174.334C97.1058 174.286 97.4418 174.13 97.6818 173.866C97.9298 173.602 98.0538 173.286 98.0538 172.918C98.0538 172.526 97.9338 172.226 97.6938 172.018C97.4538 171.802 97.1138 171.63 96.6738 171.502V174.334ZM101.031 170.722C101.031 169.346 101.255 168.274 101.703 167.506C102.151 166.73 102.935 166.342 104.055 166.342C105.167 166.342 105.947 166.73 106.395 167.506C106.843 168.274 107.067 169.346 107.067 170.722C107.067 172.122 106.843 173.21 106.395 173.986C105.947 174.762 105.167 175.15 104.055 175.15C102.935 175.15 102.151 174.762 101.703 173.986C101.255 173.21 101.031 172.122 101.031 170.722ZM105.987 170.722C105.987 170.026 105.939 169.438 105.843 168.958C105.755 168.47 105.567 168.078 105.279 167.782C104.999 167.486 104.591 167.338 104.055 167.338C103.511 167.338 103.095 167.486 102.807 167.782C102.527 168.078 102.339 168.47 102.243 168.958C102.155 169.438 102.111 170.026 102.111 170.722C102.111 171.442 102.155 172.046 102.243 172.534C102.339 173.022 102.527 173.414 102.807 173.71C103.095 174.006 103.511 174.154 104.055 174.154C104.591 174.154 104.999 174.006 105.279 173.71C105.567 173.414 105.755 173.022 105.843 172.534C105.939 172.046 105.987 171.442 105.987 170.722ZM109.094 175.222C108.886 175.222 108.71 175.15 108.566 175.006C108.422 174.862 108.35 174.686 108.35 174.478C108.35 174.27 108.422 174.094 108.566 173.95C108.71 173.806 108.886 173.734 109.094 173.734C109.294 173.734 109.462 173.806 109.598 173.95C109.742 174.094 109.814 174.27 109.814 174.478C109.814 174.686 109.742 174.862 109.598 175.006C109.462 175.15 109.294 175.222 109.094 175.222ZM110.797 167.47V166.474H113.053V175.15H111.949V167.47H110.797ZM120.269 167.326L116.933 175.15H115.829L119.213 167.434H114.581V166.498H120.269V167.326ZM127.012 167.422H122.8V170.158C122.984 169.902 123.256 169.694 123.616 169.534C123.976 169.366 124.364 169.282 124.78 169.282C125.444 169.282 125.984 169.422 126.4 169.702C126.816 169.974 127.112 170.33 127.288 170.77C127.472 171.202 127.564 171.662 127.564 172.15C127.564 172.726 127.456 173.242 127.24 173.698C127.024 174.154 126.692 174.514 126.244 174.778C125.804 175.042 125.256 175.174 124.6 175.174C123.76 175.174 123.08 174.958 122.56 174.526C122.04 174.094 121.724 173.518 121.612 172.798H122.68C122.784 173.254 123.004 173.61 123.34 173.866C123.676 174.122 124.1 174.25 124.612 174.25C125.244 174.25 125.72 174.062 126.04 173.686C126.36 173.302 126.52 172.798 126.52 172.174C126.52 171.55 126.36 171.07 126.04 170.734C125.72 170.39 125.248 170.218 124.624 170.218C124.2 170.218 123.828 170.322 123.508 170.53C123.196 170.73 122.968 171.006 122.824 171.358H121.792V166.462H127.012V167.422ZM134.547 167.422H130.335V170.158C130.519 169.902 130.791 169.694 131.151 169.534C131.511 169.366 131.899 169.282 132.315 169.282C132.979 169.282 133.519 169.422 133.935 169.702C134.351 169.974 134.647 170.33 134.823 170.77C135.007 171.202 135.099 171.662 135.099 172.15C135.099 172.726 134.991 173.242 134.775 173.698C134.559 174.154 134.227 174.514 133.779 174.778C133.339 175.042 132.791 175.174 132.135 175.174C131.295 175.174 130.615 174.958 130.095 174.526C129.575 174.094 129.259 173.518 129.147 172.798H130.215C130.319 173.254 130.539 173.61 130.875 173.866C131.211 174.122 131.635 174.25 132.147 174.25C132.779 174.25 133.255 174.062 133.575 173.686C133.895 173.302 134.055 172.798 134.055 172.174C134.055 171.55 133.895 171.07 133.575 170.734C133.255 170.39 132.783 170.218 132.159 170.218C131.735 170.218 131.363 170.322 131.043 170.53C130.731 170.73 130.503 171.006 130.359 171.358H129.327V166.462H134.547V167.422ZM142.082 167.422H137.87V170.158C138.054 169.902 138.326 169.694 138.686 169.534C139.046 169.366 139.434 169.282 139.85 169.282C140.514 169.282 141.054 169.422 141.47 169.702C141.886 169.974 142.182 170.33 142.358 170.77C142.542 171.202 142.634 171.662 142.634 172.15C142.634 172.726 142.526 173.242 142.31 173.698C142.094 174.154 141.762 174.514 141.314 174.778C140.874 175.042 140.326 175.174 139.67 175.174C138.83 175.174 138.15 174.958 137.63 174.526C137.11 174.094 136.794 173.518 136.682 172.798H137.75C137.854 173.254 138.074 173.61 138.41 173.866C138.746 174.122 139.17 174.25 139.682 174.25C140.314 174.25 140.79 174.062 141.11 173.686C141.43 173.302 141.59 172.798 141.59 172.174C141.59 171.55 141.43 171.07 141.11 170.734C140.79 170.39 140.318 170.218 139.694 170.218C139.27 170.218 138.898 170.322 138.578 170.53C138.266 170.73 138.038 171.006 137.894 171.358H136.862V166.462H142.082V167.422ZM149.425 167.326L146.089 175.15H144.985L148.369 167.434H143.737V166.498H149.425V167.326ZM156.823 177.382C156.055 176.63 155.455 175.674 155.023 174.514C154.599 173.354 154.387 172.102 154.387 170.758C154.387 169.382 154.611 168.098 155.059 166.906C155.515 165.706 156.163 164.718 157.003 163.942H158.143V164.05C157.247 164.89 156.571 165.902 156.115 167.086C155.667 168.262 155.443 169.486 155.443 170.758C155.443 171.998 155.655 173.182 156.079 174.31C156.511 175.438 157.139 176.426 157.963 177.274V177.382H156.823ZM158.997 167.47V166.474H161.253V175.15H160.149V167.47H158.997ZM163.656 175.222C163.448 175.222 163.272 175.15 163.128 175.006C162.984 174.862 162.912 174.686 162.912 174.478C162.912 174.27 162.984 174.094 163.128 173.95C163.272 173.806 163.448 173.734 163.656 173.734C163.856 173.734 164.024 173.806 164.16 173.95C164.304 174.094 164.376 174.27 164.376 174.478C164.376 174.686 164.304 174.862 164.16 175.006C164.024 175.15 163.856 175.222 163.656 175.222ZM165.516 174.274C166.532 173.458 167.328 172.79 167.904 172.27C168.48 171.742 168.964 171.194 169.356 170.626C169.756 170.05 169.956 169.486 169.956 168.934C169.956 168.414 169.828 168.006 169.572 167.71C169.324 167.406 168.92 167.254 168.36 167.254C167.816 167.254 167.392 167.426 167.088 167.77C166.792 168.106 166.632 168.558 166.608 169.126H165.552C165.584 168.23 165.856 167.538 166.368 167.05C166.88 166.562 167.54 166.318 168.348 166.318C169.172 166.318 169.824 166.546 170.304 167.002C170.792 167.458 171.036 168.086 171.036 168.886C171.036 169.55 170.836 170.198 170.436 170.83C170.044 171.454 169.596 172.006 169.092 172.486C168.588 172.958 167.944 173.51 167.16 174.142H171.288V175.054H165.516V174.274ZM172.31 168.43C172.31 167.886 172.474 167.454 172.802 167.134C173.13 166.806 173.55 166.642 174.062 166.642C174.574 166.642 174.994 166.806 175.322 167.134C175.65 167.454 175.814 167.886 175.814 168.43C175.814 168.982 175.65 169.422 175.322 169.75C174.994 170.07 174.574 170.23 174.062 170.23C173.55 170.23 173.13 170.07 172.802 169.75C172.474 169.422 172.31 168.982 172.31 168.43ZM179.318 166.774L174.458 175.15H173.378L178.238 166.774H179.318ZM174.062 167.314C173.79 167.314 173.574 167.41 173.414 167.602C173.262 167.786 173.186 168.062 173.186 168.43C173.186 168.798 173.262 169.078 173.414 169.27C173.574 169.462 173.79 169.558 174.062 169.558C174.334 169.558 174.55 169.462 174.71 169.27C174.87 169.07 174.95 168.79 174.95 168.43C174.95 168.062 174.87 167.786 174.71 167.602C174.55 167.41 174.334 167.314 174.062 167.314ZM176.906 173.494C176.906 172.942 177.07 172.506 177.398 172.186C177.726 171.858 178.146 171.694 178.658 171.694C179.17 171.694 179.586 171.858 179.906 172.186C180.234 172.506 180.398 172.942 180.398 173.494C180.398 174.038 180.234 174.474 179.906 174.802C179.586 175.13 179.17 175.294 178.658 175.294C178.146 175.294 177.726 175.134 177.398 174.814C177.07 174.486 176.906 174.046 176.906 173.494ZM178.646 172.378C178.374 172.378 178.158 172.474 177.998 172.666C177.838 172.85 177.758 173.126 177.758 173.494C177.758 173.854 177.838 174.13 177.998 174.322C178.158 174.506 178.374 174.598 178.646 174.598C178.918 174.598 179.134 174.506 179.294 174.322C179.454 174.13 179.534 173.854 179.534 173.494C179.534 173.126 179.454 172.85 179.294 172.666C179.134 172.474 178.918 172.378 178.646 172.378ZM181.488 177.382V177.274C182.312 176.426 182.936 175.438 183.36 174.31C183.792 173.182 184.008 171.998 184.008 170.758C184.008 169.486 183.78 168.262 183.324 167.086C182.876 165.902 182.204 164.89 181.308 164.05V163.942H182.448C183.288 164.718 183.932 165.706 184.38 166.906C184.836 168.098 185.064 169.382 185.064 170.758C185.064 172.102 184.848 173.354 184.416 174.514C183.992 175.674 183.396 176.63 182.628 177.382H181.488Z" fill="#D20373"/>
<path d="M118.449 122.498H105.273V131.714C105.873 130.874 106.749 130.19 107.901 129.662C109.053 129.11 110.301 128.834 111.645 128.834C113.613 128.834 115.221 129.242 116.469 130.058C117.717 130.85 118.617 131.894 119.169 133.19C119.721 134.462 119.997 135.83 119.997 137.294C119.997 138.974 119.673 140.498 119.025 141.866C118.401 143.21 117.429 144.278 116.109 145.07C114.813 145.862 113.193 146.258 111.249 146.258C108.777 146.258 106.773 145.622 105.237 144.35C103.701 143.054 102.765 141.314 102.429 139.13H104.913C105.225 140.714 105.945 141.938 107.073 142.802C108.201 143.666 109.593 144.098 111.249 144.098C113.337 144.098 114.909 143.486 115.965 142.262C117.045 141.014 117.585 139.37 117.585 137.33C117.585 135.338 117.045 133.79 115.965 132.686C114.885 131.558 113.337 130.994 111.321 130.994C109.929 130.994 108.705 131.318 107.649 131.966C106.593 132.614 105.813 133.49 105.309 134.594H102.933V120.302H118.449V122.498ZM125.368 146.33C124.84 146.33 124.396 146.15 124.036 145.79C123.7 145.43 123.532 144.986 123.532 144.458C123.532 143.93 123.7 143.498 124.036 143.162C124.396 142.802 124.84 142.622 125.368 142.622C125.872 142.622 126.292 142.802 126.628 143.162C126.988 143.498 127.168 143.93 127.168 144.458C127.168 144.986 126.988 145.43 126.628 145.79C126.292 146.15 125.872 146.33 125.368 146.33ZM134.283 139.274C134.547 140.834 135.147 142.034 136.083 142.874C137.019 143.714 138.303 144.134 139.935 144.134C142.191 144.134 143.859 143.258 144.939 141.506C146.043 139.73 146.547 136.802 146.451 132.722C145.995 134.042 145.119 135.086 143.823 135.854C142.551 136.598 141.087 136.97 139.431 136.97C136.911 136.97 134.883 136.214 133.347 134.702C131.835 133.19 131.079 131.09 131.079 128.402C131.079 126.794 131.391 125.342 132.015 124.046C132.639 122.75 133.587 121.73 134.859 120.986C136.131 120.242 137.691 119.87 139.539 119.87C142.947 119.87 145.323 120.986 146.667 123.218C148.011 125.426 148.683 128.606 148.683 132.758C148.683 137.246 148.011 140.618 146.667 142.874C145.347 145.13 143.067 146.258 139.827 146.258C137.451 146.258 135.603 145.622 134.283 144.35C132.963 143.054 132.183 141.362 131.943 139.274H134.283ZM139.827 134.81C140.955 134.81 141.987 134.582 142.923 134.126C143.883 133.646 144.651 132.95 145.227 132.038C145.803 131.126 146.091 130.034 146.091 128.762C146.091 126.794 145.527 125.174 144.399 123.902C143.295 122.63 141.699 121.994 139.611 121.994C137.763 121.994 136.275 122.57 135.147 123.722C134.043 124.874 133.491 126.41 133.491 128.33C133.491 130.346 134.043 131.93 135.147 133.082C136.251 134.234 137.811 134.81 139.827 134.81ZM168.267 126.638C167.739 123.518 165.927 121.958 162.831 121.958C160.479 121.958 158.715 122.87 157.539 124.694C156.363 126.518 155.823 129.506 155.919 133.658C156.399 132.218 157.311 131.09 158.655 130.274C160.023 129.434 161.583 129.014 163.335 129.014C165.855 129.014 167.847 129.794 169.311 131.354C170.799 132.89 171.543 135.014 171.543 137.726C171.543 139.31 171.231 140.75 170.607 142.046C170.007 143.318 169.071 144.338 167.799 145.106C166.551 145.874 164.991 146.258 163.119 146.258C159.543 146.258 157.071 145.118 155.703 142.838C154.359 140.558 153.687 137.33 153.687 133.154C153.687 124.274 156.735 119.834 162.831 119.834C165.135 119.834 166.947 120.47 168.267 121.742C169.587 122.99 170.367 124.622 170.607 126.638H168.267ZM162.867 131.174C161.739 131.174 160.671 131.402 159.663 131.858C158.655 132.314 157.827 133.01 157.179 133.946C156.555 134.858 156.243 135.986 156.243 137.33C156.243 139.274 156.819 140.894 157.971 142.19C159.123 143.486 160.803 144.134 163.011 144.134C164.859 144.134 166.335 143.57 167.439 142.442C168.543 141.314 169.095 139.778 169.095 137.834C169.095 135.746 168.555 134.114 167.475 132.938C166.395 131.762 164.859 131.174 162.867 131.174Z" fill="white"/>
<defs>
<filter id="filter0_d_23_14" x="115.359" y="26.1499" width="132.428" height="151.041" filterUnits="userSpaceOnUse" color-interpolation-filters="sRGB">
<feFlood flood-opacity="0" result="BackgroundImageFix"/>
<feColorMatrix in="SourceAlpha" type="matrix" values="0 0 0 0 0 0 0 0 0 0 0 0 0 0 0 0 0 0 127 0" result="hardAlpha"/>
<feOffset dy="4"/>
<feGaussianBlur stdDeviation="2"/>
<feComposite in2="hardAlpha" operator="out"/>
<feColorMatrix type="matrix" values="0 0 0 0 0 0 0 0 0 0 0 0 0 0 0 0 0 0 0.25 0"/>
<feBlend mode="normal" in2="BackgroundImageFix" result="effect1_dropShadow_23_14"/>
<feBlend mode="normal" in="SourceGraphic" in2="effect1_dropShadow_23_14" result="shape"/>
</filter>
<filter id="filter1_d_23_14" x="34.781" y="29.7715" width="83.217" height="73.6143" filterUnits="userSpaceOnUse" color-interpolation-filters="sRGB">
<feFlood flood-opacity="0" result="BackgroundImageFix"/>
<feColorMatrix in="SourceAlpha" type="matrix" values="0 0 0 0 0 0 0 0 0 0 0 0 0 0 0 0 0 0 127 0" result="hardAlpha"/>
<feOffset dy="4"/>
<feGaussianBlur stdDeviation="2"/>
<feComposite in2="hardAlpha" operator="out"/>
<feColorMatrix type="matrix" values="0 0 0 0 0 0 0 0 0 0 0 0 0 0 0 0 0 0 0.25 0"/>
<feBlend mode="normal" in2="BackgroundImageFix" result="effect1_dropShadow_23_14"/>
<feBlend mode="normal" in="SourceGraphic" in2="effect1_dropShadow_23_14" result="shape"/>
</filter>
<filter id="filter2_d_23_14" x="25.7866" y="101.774" width="20.3876" height="70.8311" filterUnits="userSpaceOnUse" color-interpolation-filters="sRGB">
<feFlood flood-opacity="0" result="BackgroundImageFix"/>
<feColorMatrix in="SourceAlpha" type="matrix" values="0 0 0 0 0 0 0 0 0 0 0 0 0 0 0 0 0 0 127 0" result="hardAlpha"/>
<feOffset dy="4"/>
<feGaussianBlur stdDeviation="2"/>
<feComposite in2="hardAlpha" operator="out"/>
<feColorMatrix type="matrix" values="0 0 0 0 0 0 0 0 0 0 0 0 0 0 0 0 0 0 0.25 0"/>
<feBlend mode="normal" in2="BackgroundImageFix" result="effect1_dropShadow_23_14"/>
<feBlend mode="normal" in="SourceGraphic" in2="effect1_dropShadow_23_14" result="shape"/>
</filter>
<filter id="filter3_d_23_14" x="35.0511" y="171.511" width="51.4009" height="58.2593" filterUnits="userSpaceOnUse" color-interpolation-filters="sRGB">
<feFlood flood-opacity="0" result="BackgroundImageFix"/>
<feColorMatrix in="SourceAlpha" type="matrix" values="0 0 0 0 0 0 0 0 0 0 0 0 0 0 0 0 0 0 127 0" result="hardAlpha"/>
<feOffset dy="4"/>
<feGaussianBlur stdDeviation="2"/>
<feComposite in2="hardAlpha" operator="out"/>
<feColorMatrix type="matrix" values="0 0 0 0 0 0 0 0 0 0 0 0 0 0 0 0 0 0 0.25 0"/>
<feBlend mode="normal" in2="BackgroundImageFix" result="effect1_dropShadow_23_14"/>
<feBlend mode="normal" in="SourceGraphic" in2="effect1_dropShadow_23_14" result="shape"/>
</filter>
<filter id="filter4_d_23_14" x="81.5995" y="220.138" width="55.1361" height="27.6777" filterUnits="userSpaceOnUse" color-interpolation-filters="sRGB">
<feFlood flood-opacity="0" result="BackgroundImageFix"/>
<feColorMatrix in="SourceAlpha" type="matrix" values="0 0 0 0 0 0 0 0 0 0 0 0 0 0 0 0 0 0 127 0" result="hardAlpha"/>
<feOffset dy="4"/>
<feGaussianBlur stdDeviation="2"/>
<feComposite in2="hardAlpha" operator="out"/>
<feColorMatrix type="matrix" values="0 0 0 0 0 0 0 0 0 0 0 0 0 0 0 0 0 0 0.25 0"/>
<feBlend mode="normal" in2="BackgroundImageFix" result="effect1_dropShadow_23_14"/>
<feBlend mode="normal" in="SourceGraphic" in2="effect1_dropShadow_23_14" result="shape"/>
</filter>
<filter id="filter5_d_23_14" x="134.376" y="221.234" width="55.3877" height="26.7515" filterUnits="userSpaceOnUse" color-interpolation-filters="sRGB">
<feFlood flood-opacity="0" result="BackgroundImageFix"/>
<feColorMatrix in="SourceAlpha" type="matrix" values="0 0 0 0 0 0 0 0 0 0 0 0 0 0 0 0 0 0 127 0" result="hardAlpha"/>
<feOffset dy="4"/>
<feGaussianBlur stdDeviation="2"/>
<feComposite in2="hardAlpha" operator="out"/>
<feColorMatrix type="matrix" values="0 0 0 0 0 0 0 0 0 0 0 0 0 0 0 0 0 0 0.25 0"/>
<feBlend mode="normal" in2="BackgroundImageFix" result="effect1_dropShadow_23_14"/>
<feBlend mode="normal" in="SourceGraphic" in2="effect1_dropShadow_23_14" result="shape"/>
</filter>
<filter id="filter6_d_23_14" x="185.128" y="196" width="37.3533" height="34.9082" filterUnits="userSpaceOnUse" color-interpolation-filters="sRGB">
<feFlood flood-opacity="0" result="BackgroundImageFix"/>
<feColorMatrix in="SourceAlpha" type="matrix" values="0 0 0 0 0 0 0 0 0 0 0 0 0 0 0 0 0 0 127 0" result="hardAlpha"/>
<feOffset dy="4"/>
<feGaussianBlur stdDeviation="2"/>
<feComposite in2="hardAlpha" operator="out"/>
<feColorMatrix type="matrix" values="0 0 0 0 0 0 0 0 0 0 0 0 0 0 0 0 0 0 0.25 0"/>
<feBlend mode="normal" in2="BackgroundImageFix" result="effect1_dropShadow_23_14"/>
<feBlend mode="normal" in="SourceGraphic" in2="effect1_dropShadow_23_14" result="shape"/>
</filter>
<filter id="filter7_d_23_14" x="214.733" y="174.396" width="22.3157" height="26.3047" filterUnits="userSpaceOnUse" color-interpolation-filters="sRGB">
<feFlood flood-opacity="0" result="BackgroundImageFix"/>
<feColorMatrix in="SourceAlpha" type="matrix" values="0 0 0 0 0 0 0 0 0 0 0 0 0 0 0 0 0 0 127 0" result="hardAlpha"/>
<feOffset dy="4"/>
<feGaussianBlur stdDeviation="2"/>
<feComposite in2="hardAlpha" operator="out"/>
<feColorMatrix type="matrix" values="0 0 0 0 0 0 0 0 0 0 0 0 0 0 0 0 0 0 0.25 0"/>
<feBlend mode="normal" in2="BackgroundImageFix" result="effect1_dropShadow_23_14"/>
<feBlend mode="normal" in="SourceGraphic" in2="effect1_dropShadow_23_14" result="shape"/>
</filter>
</defs>
</svg>
