<svg width="16" height="24" viewBox="0 0 16 24" fill="none" xmlns="http://www.w3.org/2000/svg">
<path d="M10.6746 19.2838C10.6746 19.7803 9.48413 20.3542 8.01558 20.3542C6.54702 20.3542 5.35655 19.7803 5.35655 19.2838C5.35655 18.9103 6.0278 18.5896 6.98625 18.4538C7.06119 17.3997 7.135 13.5371 7.135 13.5371C7.09094 11.9246 6.3594 10.4468 5.46329 9.71667C4.73975 9.12652 4.29135 8.28924 4.3007 7.36285C4.31605 5.59805 5.97952 4.17792 8.01558 4.17792C10.0525 4.17792 11.716 5.59805 11.7304 7.36285C11.7386 8.28924 11.2914 9.12652 10.5679 9.71667C9.67293 10.4468 8.93909 11.9246 8.8961 13.5371C8.8961 13.5371 8.87697 17.8523 9.04602 18.4538C10.0025 18.5896 10.6746 18.9103 10.6746 19.2838ZM0 19.9429C0.024511 19.6306 0.145803 19.3514 0.302833 19.0658C0.969589 18.9513 2.80137 18.3934 1.86485 17.6457C2.19336 17.455 2.60346 17.2687 2.94217 17.1304C3.99095 17.1751 4.64966 17.0502 5.23072 16.7539C5.36418 16.6563 5.45562 16.5576 5.45445 16.4578C5.69507 16.4153 5.95805 16.3808 6.21799 16.3458C6.41319 17.1413 6.15653 17.4737 5.72964 17.6116C4.73208 17.9026 3.97766 18.3819 3.76011 18.9701C3.31994 20.1601 5.16926 21.323 7.98115 21.323C10.794 21.323 12.6433 20.16 12.2041 18.9701C11.9915 18.3964 11.267 17.9265 10.3054 17.6333C9.71507 17.4519 9.59762 17.1188 9.77789 16.3458C10.1261 16.3834 10.4924 16.4413 10.8063 16.4937C10.8633 16.7435 11.0449 16.8261 11.2362 16.9339C11.9425 17.2087 12.6638 17.2703 13.2681 17.2043C13.6277 17.3504 13.9736 17.5347 14.318 17.7391C13.1066 18.5002 15.262 19.1232 15.7845 19.2202C15.9204 19.4947 15.9819 19.7948 16 20.1158C15.4092 20.1479 14.7441 20.2628 14.3836 20.7204C14.0691 21.348 14.5014 21.7806 14.8927 22.084C14.4347 22.4364 13.9706 22.7276 13.4457 22.952C12.2736 22.3953 9.71615 22.2361 8.99906 23.9723C8.18234 24.0153 7.34536 24.0131 6.4776 23.931C5.8965 22.2527 3.52225 22.2965 2.16946 22.7987C1.72882 22.5583 1.22289 22.2312 0.866166 21.899C1.24272 21.6152 1.50654 21.3042 1.56819 20.8727C1.43011 20.1379 0.519737 19.9691 0 19.9429ZM13.0957 7.34738C13.0957 4.56853 10.8371 2.30724 8.00145 2.30724C5.16603 2.30724 2.90736 4.56849 2.90736 7.34738C2.90736 8.5321 3.32812 9.68269 4.09166 10.5898C5.12823 11.6205 5.60765 12.8894 5.54993 14.2847C2.6087 13.2686 0.620868 10.4972 0.60445 7.38839C0.582932 3.50222 3.71408 0.18886 7.58275 0.00262549C7.85331 0.00281299 8.15053 -0.00337452 8.41921 0.00262549C12.289 0.188813 15.419 3.50222 15.3987 7.38839C15.3811 10.4973 13.3944 13.2686 10.4532 14.2847C10.4532 14.2847 10.0354 12.6991 11.8803 10.6227C12.6738 9.68264 13.0957 8.53205 13.0957 7.34738Z"/>
</svg>
