<svg width="22" height="22" viewBox="0 0 22 22" fill="none" xmlns="http://www.w3.org/2000/svg">
    <path
        d="M2.20067 11.1493H11.1505V2.20043C11.1505 2.09032 11.2406 2.00023 11.3508 2.00023H12.0015C13.3147 1.99889 14.6153 2.25684 15.8286 2.75929C17.0419 3.26173 18.144 3.99877 19.0718 4.92813C19.9852 5.83862 20.7128 6.91803 21.2141 8.10626C21.7347 9.33998 22 10.6488 22 12.0001C22 13.3514 21.7347 14.6577 21.2141 15.8915C20.7111 17.0801 19.9903 18.1512 19.0718 19.0696C18.1533 19.988 17.0846 20.7087 15.8933 21.2117C14.6616 21.7342 13.3369 22.0023 11.999 22C10.6857 22.0013 9.38515 21.7434 8.17185 21.2409C6.95855 20.7385 5.85641 20.0014 4.92868 19.0721C4.01016 18.1537 3.28937 17.0851 2.78631 15.894C2.26377 14.6624 1.99561 13.3379 1.99794 12.0001V11.3495C2.00045 11.2394 2.09055 11.1493 2.20067 11.1493ZM0.000741959 9.7604L0.0658131 9.0547C0.278547 6.75243 1.29967 4.58028 2.94649 2.94116C4.59178 1.29745 6.75986 0.280366 9.07575 0.0658243L9.78403 0.000760068C9.90166 -0.00924982 10.0018 0.0808392 10.0018 0.198455V9.80044C10.0018 9.91055 9.91167 10.0006 9.80155 10.0006L0.200962 9.97561C0.083334 9.97311 -0.00926971 9.87551 0.000741959 9.7604Z"
        />
</svg>