<svg width="20" height="23" viewBox="0 0 20 23" fill="none" xmlns="http://www.w3.org/2000/svg">
<path d="M4.67247 0.186525L0.240704 3.83773C-0.267598 4.24342 0.0818595 4.9501 0.79666 4.9501H3.63998V12.8152C3.63998 13.535 4.35478 14.1239 5.22842 14.1239C6.10207 14.1239 6.81687 13.535 6.81687 12.8152V4.9501H9.66018C10.375 4.9501 10.7244 4.24342 10.2161 3.83773L5.78438 0.186525C5.63572 0.0669424 5.43619 0 5.22842 0C5.02065 0 4.82113 0.0669424 4.67247 0.186525ZM16.3475 18.063V10.1979C16.3475 9.47812 15.6327 8.88921 14.7591 8.88921C13.8854 8.88921 13.1706 9.47812 13.1706 10.1979V18.063H10.3273C9.61253 18.063 9.26307 18.7697 9.77138 19.1754L14.2031 22.8135C14.5208 23.0622 15.0132 23.0622 15.3309 22.8135L19.7627 19.1754C20.271 18.7697 19.9057 18.063 19.2067 18.063H16.3475Z"/>
</svg>
