<svg width="26" height="25" viewBox="0 0 26 25" fill="none" xmlns="http://www.w3.org/2000/svg">
<path fill-rule="evenodd" clip-rule="evenodd" d="M9.29524 0.817711L10.1675 0.583984L11.4037 2.11255C11.8735 2.05225 12.3488 2.02163 12.8268 2.02166C13.2288 2.02168 13.6289 2.04337 14.0255 2.08617L15.2399 0.584471L16.1122 0.818198L16.3943 2.60656C17.3863 2.9408 18.3309 3.41422 19.1982 4.01624L20.978 3.17424L21.6624 3.76335L21.0879 5.6715C21.7664 6.41638 22.3397 7.24817 22.7935 8.1432L24.6496 8.23568L24.9748 9.07813L23.648 10.4083C23.6969 10.5981 23.7409 10.7896 23.7799 10.9825C23.9029 11.5912 23.9744 12.2056 23.9951 12.8195L25.844 13.8108L25.7773 14.7114L23.7763 15.4289C23.6392 16.1019 23.4398 16.7631 23.1795 17.4037L24.3009 18.8866L23.864 19.6769L22.0322 19.5174C21.4999 20.2764 20.8592 20.986 20.1483 21.616L20.5835 23.3763L19.8704 23.9304L18.1996 23.035C17.7719 23.2864 17.3334 23.5079 16.8899 23.6948L16.4064 21.6887L16.4682 21.6624H16.4011L14.7481 15.8548L10.9036 15.8548L9.26917 21.6624H9.18431L9.24523 21.6884L8.7625 23.6948C8.34752 23.5198 7.93685 23.3146 7.53521 23.0828L5.8711 24.0268L5.14493 23.49L5.55154 21.6575C4.9031 21.0886 4.31188 20.4535 3.80647 19.7749L1.86553 19.9727L1.41698 19.189L2.56507 17.6235C2.24536 16.8824 2.00825 16.112 1.85574 15.3262L0.0516454 14.6451L0 13.7435L1.65516 12.8914C1.67261 12.2532 1.74482 11.6142 1.87281 10.9814C1.91863 10.7549 1.97134 10.5304 2.03078 10.3083L0.757604 9.01357L1.08883 8.17346L2.88262 8.09686C3.31895 7.24617 3.86351 6.45325 4.50396 5.7386L3.95411 3.96613L4.63361 3.37133L6.28525 4.1359C7.12335 3.53086 8.03709 3.04811 8.99877 2.69754L9.29524 0.817711ZM17.7224 21.0044C19.088 20.148 20.2129 18.9432 20.9741 17.5028C21.968 15.6222 22.2807 13.4557 21.8592 11.3708C21.4377 9.28591 20.308 7.411 18.6617 6.06412C17.0563 4.75077 15.0562 4.01836 12.9855 3.98259L17.7224 21.0044ZM12.6482 3.98294C10.5845 4.02279 8.59189 4.75453 6.99153 6.06353C5.34508 7.41025 4.21517 9.28505 3.79348 11.3699C3.37179 13.4548 3.68429 15.6213 4.67797 17.502C5.43896 18.9424 6.56357 20.1471 7.92887 21.0036L12.6482 3.98294ZM11.3865 14.1749L12.8166 9.03927L14.2652 14.1749L11.3865 14.1749Z" fill="url(#paint0_linear_3679_2646)"/>
<defs>
<linearGradient id="paint0_linear_3679_2646" x1="4.74112" y1="12.4371" x2="19.9802" y2="34.788" gradientUnits="userSpaceOnUse">
<stop stop-color="#40BA93"/>
<stop offset="1" stop-color="#C407E3"/>
</linearGradient>
</defs>
</svg>
