<svg width="15" height="16" viewBox="0 0 15 16" fill="none" xmlns="http://www.w3.org/2000/svg">
<path d="M7.98235 1V0.9H7.88235H7.11765H7.01765V1V10.2834L3.17425 6.37434L3.10715 6.30609L3.03603 6.37013L2.4625 6.88658L2.38485 6.95649L2.4581 7.031L7.42869 12.0866L7.5 12.1591L7.57131 12.0866L12.5419 7.031L12.6151 6.95649L12.5375 6.88658L11.964 6.37013L11.8929 6.30609L11.8258 6.37434L7.98235 10.2834V1ZM1 12.5667H0.9V12.6667V15V15.1H1H14H14.1V15V12.6667V12.5667H14H13.2353H13.1353V12.6667V14.1222H1.86471V12.6667V12.5667H1.76471H1Z" fill="#40BA93" stroke="#40BA93" stroke-width="0.2"/>
</svg>
