<svg width="14" height="18" viewBox="0 0 14 18" fill="none" xmlns="http://www.w3.org/2000/svg">
<path d="M13 7.49688V14.8C13 15.2774 12.8104 15.7352 12.4728 16.0728C12.1352 16.4104 11.6774 16.6 11.2 16.6H2.8C2.32261 16.6 1.86477 16.4104 1.52721 16.0728C1.18964 15.7352 1 15.2774 1 14.8V2.8C1 2.32261 1.18964 1.86477 1.52721 1.52721C1.86477 1.18964 2.32261 1 2.8 1H6.50313C6.82127 1.00005 7.12638 1.12643 7.35138 1.35137L12.6486 6.64863C12.8736 6.87362 13 7.17873 13 7.49688Z" stroke="#4F4F4F" stroke-linejoin="round"/>
<path d="M7 1.30005V5.80005C7 6.11831 7.12643 6.42353 7.35147 6.64858C7.57652 6.87362 7.88174 7.00005 8.2 7.00005H12.7" stroke="#4F4F4F" stroke-linecap="round" stroke-linejoin="round"/>
</svg>
