<svg width="20" height="13" viewBox="0 0 20 13" fill="none" xmlns="http://www.w3.org/2000/svg">
<path d="M10 0C4.3 0 0 2.15 0 5C0 7.45 3.19 9.38 7.71 9.88L7.29 10.29C7.19627 10.383 7.12188 10.4936 7.07111 10.6154C7.02034 10.7373 6.9942 10.868 6.9942 11C6.9942 11.132 7.02034 11.2627 7.07111 11.3846C7.12188 11.5064 7.19627 11.617 7.29 11.71C7.38296 11.8037 7.49356 11.8781 7.61542 11.9289C7.73728 11.9797 7.86799 12.0058 8 12.0058C8.13201 12.0058 8.26272 11.9797 8.38458 11.9289C8.50644 11.8781 8.61704 11.8037 8.71 11.71L10.71 9.71C10.801 9.6149 10.8724 9.50275 10.92 9.38C11.02 9.13654 11.02 8.86346 10.92 8.62C10.8724 8.49725 10.801 8.3851 10.71 8.29L8.71 6.29C8.5217 6.1017 8.2663 5.99591 8 5.99591C7.7337 5.99591 7.4783 6.1017 7.29 6.29C7.1017 6.4783 6.99591 6.7337 6.99591 7C6.99591 7.2663 7.1017 7.5217 7.29 7.71L7.41 7.82C4 7.34 2 6 2 5C2 3.78 5.12 2 10 2C14.88 2 18 3.78 18 5C18 5.83 16.55 7 13.79 7.6C13.6594 7.62503 13.535 7.67587 13.4243 7.74954C13.3135 7.82321 13.2186 7.91824 13.145 8.02906C13.0715 8.13987 13.0207 8.26425 12.9958 8.39491C12.9709 8.52557 12.9724 8.65989 13 8.79C13.0273 8.91884 13.0798 9.04101 13.1544 9.14951C13.2291 9.25801 13.3244 9.35069 13.435 9.42224C13.5456 9.49379 13.6692 9.54279 13.7988 9.56643C13.9283 9.59007 14.0613 9.58788 14.19 9.56C17.84 8.76 20 7.06 20 5C20 2.15 15.7 0 10 0Z" fill="#7515C0"/>
</svg>
