<svg width="38" height="38" viewBox="0 0 38 38" fill="none" xmlns="http://www.w3.org/2000/svg">
<circle cx="19" cy="19" r="19" fill="#1F1E20"/>
<path fill-rule="evenodd" clip-rule="evenodd" d="M15.2952 7.23373L16.1675 7L17.4033 8.52807C17.8731 8.46778 18.3483 8.43716 18.8263 8.43718C19.2283 8.4372 19.6284 8.4589 20.025 8.5017L21.2394 7L22.1117 7.23373L22.3938 9.02209C23.3858 9.35633 24.3304 9.82975 25.1977 10.4318L26.9775 9.58977L27.6619 10.1789L27.0874 12.087C27.7659 12.8319 28.3392 13.6637 28.793 14.5587L30.6491 14.6512L30.9743 15.4937L29.6475 16.8238C29.6964 17.0137 29.7404 17.2051 29.7794 17.3981C29.9025 18.0067 29.9739 18.6211 29.9946 19.2351L31.8435 20.2263L31.7768 21.1269L29.7758 21.8444C29.6387 22.5174 29.4393 23.1786 29.179 23.8192L30.3004 25.3022L29.8635 26.0925L28.0318 25.9329C27.4994 26.6919 26.8587 27.4016 26.1478 28.0315L26.583 29.7919L25.8699 30.346L24.1991 29.4505C23.7714 29.702 23.3329 29.9234 22.8895 30.1104L22.4059 28.1042L22.4677 28.0779H22.4006L20.7476 22.2703L16.9031 22.2703L15.2687 28.0779H15.1838L15.2447 28.1039L14.762 30.1104C14.347 29.9354 13.9364 29.7301 13.5347 29.4984L11.8706 30.4424L11.1444 29.9056L11.5511 28.073C10.9026 27.5041 10.3114 26.8691 9.80599 26.1904L7.86504 26.3883L7.41649 25.6045L8.56458 24.039C8.24485 23.2979 8.00772 22.5274 7.85521 21.7416L6.05165 21.0606L6 20.1591L7.65467 19.3072C7.6721 18.6689 7.74432 18.0298 7.87232 17.397C7.91817 17.1703 7.97092 16.9457 8.0304 16.7234L6.7576 15.4291L7.08883 14.589L8.88212 14.5124C9.31853 13.6615 9.86322 12.8685 10.5038 12.1537L9.95411 10.3817L10.6336 9.78686L12.2849 10.5513C13.1232 9.94619 14.0371 9.46342 14.9989 9.11285L15.2952 7.23373ZM23.7219 27.4199C25.0875 26.5635 26.2124 25.3588 26.9736 23.9184C27.9675 22.0378 28.2802 19.8712 27.8587 17.7863C27.4372 15.7014 26.3075 13.8265 24.6612 12.4796C23.0558 11.1663 21.0557 10.4339 18.985 10.3981L23.7219 27.4199ZM18.6477 10.3985C16.584 10.4383 14.5914 11.1701 12.991 12.4791C11.3446 13.8258 10.2147 15.7006 9.79299 17.7854C9.37131 19.8703 9.6838 22.0368 10.6775 23.9176C11.4385 25.3579 12.5631 26.5626 13.9284 27.4191L18.6477 10.3985ZM17.386 20.5905L18.8161 15.4548L20.2648 20.5905L17.386 20.5905Z" fill="url(#paint0_linear_3679_2661)"/>
<defs>
<linearGradient id="paint0_linear_3679_2661" x1="10.7411" y1="18.8526" x2="25.9801" y2="41.2033" gradientUnits="userSpaceOnUse">
<stop stop-color="#40BA93"/>
<stop offset="1" stop-color="#C407E3"/>
</linearGradient>
</defs>
</svg>
