<svg width="1480" height="1480" viewBox="0 0 1480 1480" fill="none" xmlns="http://www.w3.org/2000/svg">
<g clip-path="url(#clip0)">
<path d="M517.988 1208.14L513.488 1223.75L518.056 1208.28C518.056 1208.28 518.056 1208.14 517.988 1208.14ZM1379.24 673.767C1375.56 638.144 1368.95 602.886 1359.47 568.352C1351.24 538.862 1340.98 509.974 1328.78 481.893C1302.04 420.985 1266.2 364.495 1222.48 314.36C1198.93 287.385 1173.1 262.474 1145.3 239.902C1121.64 220.457 1096.57 202.794 1070.29 187.058C1039.59 168.677 1007.41 152.894 974.082 139.873C960.445 134.486 946.194 129.509 931.943 125.077C917.693 120.645 901.601 116.145 886.395 112.599C851.583 104.369 816.136 99.1002 780.435 96.848V96.848C683.15 90.8205 585.766 106.954 495.623 144.033C400.569 183.029 316.185 244.132 249.473 322.27C229.511 345.616 211.28 370.388 194.924 396.388C175.803 426.616 159.332 458.441 145.694 491.507C138.193 509.303 131.511 527.714 125.647 546.465C122.238 557.17 119.238 567.943 116.51 578.648C107.55 613.286 101.528 648.618 98.5093 684.268C95.8774 714.837 95.49 745.557 97.3502 776.182C99.4905 811.892 104.622 847.359 112.692 882.211C119.69 912.095 128.804 941.443 139.966 970.034V970.034C163.997 1032.08 197.436 1090.06 239.108 1141.93C261.503 1169.84 286.18 1195.84 312.885 1219.66C320.59 1226.48 328.432 1233.3 336.546 1239.71C338.523 1241.48 340.569 1243.05 342.546 1244.55L348.819 1249.32C352.842 1252.53 357.07 1255.66 361.229 1258.66C365.388 1261.66 368.048 1263.71 371.73 1266.1C375.412 1268.48 379.707 1271.62 383.73 1274.28C383.73 1274.28 384.344 1274.69 384.685 1275.03L385.844 1275.64C388.23 1277.28 390.549 1278.85 393.072 1280.42C395.594 1281.98 398.663 1283.96 401.459 1285.73L408.277 1290.1C411.141 1291.73 413.868 1293.44 416.8 1295.08C422.323 1298.35 427.983 1301.55 433.779 1304.62C439.574 1307.69 445.234 1310.76 451.098 1313.55C460.189 1318.1 469.644 1322.65 479.463 1327.19L482.327 1328.42C482.327 1328.42 482.327 1328.42 482.804 1328.42L505.033 1252.39L513.488 1223.69L518.056 1208.21C510.556 1204.66 503.123 1200.98 495.759 1197.09C475.144 1186.14 455.301 1173.79 436.37 1160.14C350.694 1098.45 285.86 1012.12 250.511 912.642C215.163 813.166 210.98 705.278 238.522 603.364C266.063 501.451 324.02 410.355 404.662 342.225C485.305 274.095 584.802 232.169 689.884 222.037C702.771 220.81 715.863 220.06 728.955 219.787C735.773 219.787 742.592 219.787 748.933 219.787C759.502 219.787 770.139 220.537 780.639 221.355C886.568 229.832 987.345 270.606 1069.37 338.174C1151.39 405.742 1210.7 496.849 1239.3 599.195C1267.9 701.541 1264.41 810.199 1229.29 910.497C1194.18 1010.8 1129.14 1097.91 1042.95 1160.07C1023.08 1174.24 1002.28 1187.07 980.696 1198.46C973.878 1201.8 967.673 1205.28 961.127 1208.14C960.222 1208.63 959.288 1209.06 958.331 1209.43V1209.43L970.877 1253.41L992.697 1329.65C998.084 1327.4 1003.47 1325.01 1008.79 1322.42C1009.8 1322.05 1010.78 1321.59 1011.72 1321.05C1027.68 1313.62 1043.36 1305.58 1058.63 1296.78C1073.91 1287.98 1087.95 1279.19 1102.07 1269.51C1113.79 1261.51 1125.16 1253.12 1136.16 1244.35C1137.8 1243.12 1139.5 1241.82 1141.14 1240.46C1152.32 1231.46 1163.23 1222.18 1173.8 1212.5C1222.84 1167.51 1264.63 1115.21 1297.69 1057.45C1315.45 1026.39 1330.55 993.887 1342.83 960.284C1346.38 950.67 1349.65 940.851 1352.79 930.964C1358.92 911.258 1364.17 891.553 1368.26 871.847C1382.18 806.903 1385.77 740.171 1378.9 674.108L1379.24 673.767Z" fill="#40BA93"/>
<path d="M484.444 1320.99L479.466 1327.05C469.875 1322.83 460.443 1318.28 451.169 1313.42C445.305 1310.62 439.51 1307.55 433.85 1304.49C428.191 1301.42 422.395 1298.21 416.872 1294.94C413.94 1293.3 411.213 1291.6 408.349 1289.96L401.53 1285.6C398.735 1283.82 395.871 1282.12 393.143 1280.28L385.779 1275.57L388.166 1268.14L423.213 1287.3L484.444 1320.99Z" fill="#40BA93"/>
<path d="M243.127 1135.86L319.017 1215.5L225.194 1276.46L177.736 1226.69L243.127 1135.86Z" fill="#40BA93"/>
<path d="M145.628 965.602L193.631 1064.54L85.6931 1094L55.6914 1032.15L145.628 965.602Z" fill="#40BA93"/>
<path d="M104.711 773.728L120.257 882.62L8.50062 877.711L-1.25 809.662L104.711 773.728Z" fill="#40BA93"/>
<path d="M124.281 578.512L105.871 686.927L0.933594 648.198L12.3887 580.421L124.281 578.512Z" fill="#40BA93"/>
<path d="M202.428 398.57L151.834 496.212L63.6699 427.276L95.3081 366.25L202.428 398.57Z" fill="#40BA93"/>
<path d="M331.709 251.016L253.773 328.543L190.838 236.083L239.522 187.603L331.709 251.016Z" fill="#40BA93"/>
<path d="M499.848 149.896L402.001 200.013L370.227 92.6887L431.389 61.3914L499.848 149.896Z" fill="#40BA93"/>
<path d="M690.845 104.826L582.361 122.69L584.816 10.8659L652.593 -0.316498L690.845 104.826Z" fill="#40BA93"/>
<path d="M886.395 120.236L777.639 104.144L814.118 -1.6121L882.099 8.4112L886.395 120.236Z" fill="#40BA93"/>
<path d="M1068.05 194.49L969.314 146.01L1036.27 56.414L1097.98 86.6884L1068.05 194.49Z" fill="#40BA93"/>
<path d="M1218.32 320.565L1139.09 244.334L1230.19 179.421L1279.76 227.083L1218.32 320.565Z" fill="#40BA93"/>
<path d="M1322.99 486.529L1270.83 389.706L1377.4 355.681L1409.99 416.162L1322.99 486.529Z" fill="#40BA93"/>
<path d="M1372.09 676.495L1351.9 568.352L1463.8 568.42L1476.41 635.992L1372.09 676.495Z" fill="#40BA93"/>
<path d="M1360.97 872.324L1374.67 763.227L1481.25 797.456L1472.66 865.642L1360.97 872.324Z" fill="#40BA93"/>
<path d="M1290.6 1055.47L1336.97 955.784L1428 1020.83L1399.02 1083.15L1290.6 1055.47Z" fill="#40BA93"/>
<path d="M1167.73 1208.48L1242.33 1127.61L1309.15 1217.34L1262.58 1267.87L1167.73 1208.48Z" fill="#40BA93"/>
<path d="M1102.34 1270.05C1088.71 1279.73 1074.05 1288.94 1059.25 1297.33C1044.45 1305.71 1028.36 1314.44 1012.34 1322.08C1011.49 1322.54 1010.6 1322.93 1009.68 1323.24L1008.86 1322.35L1004.09 1316.69L1008.66 1314.1L1052.77 1289.14L1099.75 1262.48L1102.14 1269.3L1102.34 1270.05Z" fill="#40BA93"/>
<path d="M579.633 779.965V931.551H504V1007.34H617.45V1083.14H693.084V1007.34H768.717V1083.14H844.351V1005.41C918.774 995.975 976.709 932.84 976.709 855.758C976.709 805.735 952.128 761.623 914.69 733.997C942.301 705.803 957.78 667.883 957.801 628.379C957.801 557.967 909.433 499.114 844.351 482.174V401H768.717V476.793H693.084V401H617.45V476.793H504V552.586H579.633V779.965ZM825.442 931.551H655.267V779.965H825.442C867.154 779.965 901.076 813.958 901.076 855.758C901.076 897.558 867.154 931.551 825.442 931.551ZM655.267 552.586H806.534C848.246 552.586 882.167 586.579 882.167 628.379C882.167 670.179 848.246 704.172 806.534 704.172H655.267V552.586Z" fill="#40BA93"/>
</g>
<defs>
<clipPath id="clip0">
<rect width="1480" height="1480" fill="white"/>
</clipPath>
</defs>
</svg>
