<svg width="38" height="38" viewBox="0 0 38 38" fill="none" xmlns="http://www.w3.org/2000/svg">
<circle cx="19" cy="19" r="19" fill="#1F1E20"/>
<path fill-rule="evenodd" clip-rule="evenodd" d="M18.7854 6.00179C18.2872 6.01003 17.9191 6.45048 17.9619 6.94698C18.0046 7.44348 18.4422 7.80747 18.9405 7.80481C21.1347 7.79309 23.2848 8.4268 25.1218 9.62667C25.539 9.89918 26.1041 9.83068 26.4093 9.43674C26.7145 9.0428 26.6441 8.47314 26.23 8.19597C24.0301 6.72373 21.4321 5.95801 18.7854 6.00179ZM29.1411 10.8663C28.8293 10.4775 28.2557 10.4566 27.8896 10.7946C27.5234 11.1326 27.5038 11.7013 27.8112 12.0936C28.6729 13.1929 29.3213 14.4439 29.7228 15.7818C29.8661 16.2591 30.3422 16.571 30.8294 16.4666C31.3167 16.3622 31.6302 15.8814 31.4923 15.4026C31.0164 13.7499 30.2172 12.2079 29.1411 10.8663ZM31.0652 18.1146C31.5622 18.0782 31.998 18.4518 31.9999 18.9501C32.0082 21.1123 31.477 23.2476 30.4479 25.16C29.276 27.3379 27.5072 29.1363 25.3491 30.3442C23.191 31.552 20.7331 32.1192 18.2639 31.9792C15.7947 31.8391 13.4167 30.9977 11.4089 29.5535C9.40122 28.1094 7.8471 26.1225 6.92899 23.8261C6.01087 21.5296 5.76686 19.019 6.2256 16.5887C6.68434 14.1585 7.82678 11.9095 9.51885 10.1058C11.0047 8.52194 12.8601 7.33911 14.9127 6.6593C15.3857 6.50262 15.8785 6.79693 16.002 7.27972C16.1255 7.76251 15.8326 8.25051 15.3614 8.41247C13.6409 9.00373 12.0859 10.0071 10.835 11.3405C9.37783 12.8938 8.39398 14.8306 7.99892 16.9235C7.60387 19.0163 7.814 21.1785 8.60467 23.1561C9.39533 25.1338 10.7337 26.8448 12.4627 28.0885C14.1917 29.3322 16.2396 30.0568 18.3661 30.1774C20.4925 30.298 22.6092 29.8096 24.4677 28.7694C26.3263 27.7292 27.8495 26.1804 28.8588 24.3049C29.7251 22.6949 30.1817 20.9015 30.1951 19.0823C30.1987 18.584 30.5682 18.1511 31.0652 18.1146ZM15.6 23.2445V19.8889V14.7556C15.6 14.6451 15.5105 14.5556 15.4 14.5556H14.2C14.0896 14.5556 14 14.466 14 14.3556V12.9778C14 12.8674 14.0896 12.7778 14.2 12.7778H16.2C16.3105 12.7778 16.4 12.6883 16.4 12.5778V11.2C16.4 11.0896 16.4896 11 16.6 11H17.8C17.9105 11 18 11.0896 18 11.2V12.5778C18 12.6883 18.0896 12.7778 18.2 12.7778H19.4C19.5105 12.7778 19.6 12.6883 19.6 12.5778V11.2C19.6 11.0896 19.6896 11 19.8 11H21C21.1105 11 21.2 11.0896 21.2 11.2V12.7536C21.2 12.8427 21.2592 12.9204 21.3435 12.9494C22.6473 13.3985 23.6 14.7397 23.6 16.3334C23.5996 17.1873 23.3215 18.0096 22.8207 18.651C22.7509 18.7403 22.7614 18.87 22.8446 18.9471C23.5478 19.599 24 20.5726 24 21.6667C24 23.4085 22.8625 24.8468 21.3714 25.1476C21.2737 25.1673 21.2 25.2511 21.2 25.3508V26.8C21.2 26.9105 21.1105 27 21 27H19.8C19.6896 27 19.6 26.9105 19.6 26.8V25.4223C19.6 25.3118 19.5105 25.2223 19.4 25.2223H18.2C18.0896 25.2223 18 25.3118 18 25.4223V26.8C18 26.9105 17.9105 27 17.8 27H16.6C16.4896 27 16.4 26.9105 16.4 26.8V25.4223C16.4 25.3118 16.3105 25.2223 16.2 25.2223H14.2C14.0896 25.2223 14 25.1327 14 25.0223V23.6445C14 23.534 14.0896 23.4445 14.2 23.4445H15.4C15.5105 23.4445 15.6 23.3549 15.6 23.2445ZM17.4 23.4445H20.8C21.6824 23.4445 22.4 22.6471 22.4 21.6667C22.4 20.6863 21.6824 19.8889 20.8 19.8889H17.4C17.2896 19.8889 17.2 19.9785 17.2 20.0889V23.2445C17.2 23.3549 17.2896 23.4445 17.4 23.4445ZM17.4 14.5556C17.2896 14.5556 17.2 14.6451 17.2 14.7556V17.9111C17.2 18.0216 17.2896 18.1111 17.4 18.1111H20.4C21.2824 18.1111 22 17.3138 22 16.3334C22 15.3529 21.2824 14.5556 20.4 14.5556H17.4Z" fill="url(#paint0_linear_3692_2435)"/>
<defs>
<linearGradient id="paint0_linear_3692_2435" x1="8" y1="13" x2="26.4395" y2="28.9933" gradientUnits="userSpaceOnUse">
<stop stop-color="#40BA93"/>
<stop offset="0.383354" stop-color="#5ADEB4"/>
<stop offset="1" stop-color="#560397"/>
</linearGradient>
</defs>
</svg>
