<svg width="38" height="38" viewBox="0 0 38 38" fill="none" xmlns="http://www.w3.org/2000/svg">
<circle cx="19" cy="19" r="19" fill="#1F1E20"/>
<path fill-rule="evenodd" clip-rule="evenodd" d="M17.9619 6.94697C17.9191 6.45047 18.2872 6.01002 18.7854 6.00178C21.4321 5.958 24.0301 6.72372 26.23 8.19596C26.6441 8.47313 26.7145 9.04279 26.4093 9.43673C26.1041 9.83067 25.539 9.89917 25.1218 9.62666C23.2848 8.42679 21.1347 7.79308 18.9405 7.8048C18.4422 7.80746 18.0046 7.44347 17.9619 6.94697ZM27.8895 10.7945C28.2557 10.4565 28.8293 10.4775 29.1411 10.8663C30.2172 12.2079 31.0164 13.7499 31.4923 15.4026C31.6302 15.8814 31.3167 16.3622 30.8294 16.4666C30.3422 16.5709 29.8661 16.2591 29.7228 15.7818C29.3213 14.4439 28.6729 13.1929 27.8112 12.0935C27.5037 11.7013 27.5234 11.1326 27.8895 10.7945ZM31.9999 18.95C31.998 18.4517 31.5622 18.0781 31.0652 18.1146C30.5682 18.1511 30.1987 18.5839 30.1951 19.0822C30.1817 20.9014 29.7251 22.6948 28.8587 24.3048C27.8495 26.1804 26.3263 27.7291 24.4677 28.7693C22.6092 29.8095 20.4925 30.298 18.366 30.1774C16.2396 30.0568 14.1917 29.3321 12.4627 28.0884C10.7337 26.8448 9.39532 25.1337 8.60466 23.1561C7.814 21.1784 7.60386 19.0163 7.99892 16.9234C8.39397 14.8305 9.37782 12.8938 10.835 11.3404C12.0858 10.007 13.6409 9.00369 15.3614 8.41243C15.8326 8.25046 16.1255 7.76246 16.002 7.27967C15.8785 6.79688 15.3857 6.50258 14.9127 6.65926C12.8601 7.33906 11.0046 8.52189 9.51884 10.1057C7.82678 11.9095 6.68433 14.1584 6.22559 16.5887C5.76686 19.0189 6.01087 21.5296 6.92898 23.826C7.8471 26.1224 9.40122 28.1093 11.4089 29.5535C13.4167 30.9976 15.7947 31.8391 18.2639 31.9791C20.733 32.1192 23.191 31.552 25.3491 30.3441C27.5072 29.1362 29.276 27.3378 30.4479 25.1599C31.477 23.2475 32.0082 21.1122 31.9999 18.95Z" fill="url(#paint0_linear_3679_2781)"/>
<path d="M22.9962 21.5793L22.9968 21.6407C22.9978 22.4902 22.6924 23.309 22.1411 23.935L22.143 23.9323C21.5688 24.5912 20.7921 25.0213 19.9466 25.1484L19.9267 25.1511V26.7246C19.9267 26.7977 19.8989 26.8677 19.8493 26.9193C19.7997 26.971 19.7325 27 19.6624 27H19.6515H19.6522H18.4957C18.4231 26.9991 18.3538 26.9687 18.3025 26.9153C18.2512 26.8618 18.222 26.7896 18.2211 26.714V25.1511C17.8355 25.0974 17.4565 25.0004 17.0909 24.8617L17.1287 24.8744C16.5825 24.6841 16.0701 24.4016 15.6119 24.0383L15.6247 24.0483C15.4847 23.9428 15.3503 23.8295 15.2221 23.7089L15.2266 23.7129C15.1553 23.6418 15.1054 23.5885 15.0768 23.5529C15.0305 23.505 15.0032 23.4407 15.0003 23.3728C14.9973 23.3049 15.0189 23.2383 15.0608 23.1862L15.0602 23.1869L15.9427 21.9814C15.9662 21.9499 15.9959 21.9241 16.0298 21.9057C16.0637 21.8873 16.101 21.8767 16.1392 21.8747H16.1399C16.1778 21.8674 16.2169 21.8711 16.253 21.8853C16.2891 21.8995 16.3208 21.9238 16.3447 21.9554L16.3453 21.956L16.3619 21.9734C16.9406 22.5254 17.6488 22.9085 18.4151 23.0842L18.4445 23.0902C18.6352 23.1355 18.8541 23.1615 19.0787 23.1615L19.1184 23.1622C19.5606 23.1622 19.9702 23.0182 20.3075 22.7728L20.3005 22.7775C20.4706 22.6577 20.6084 22.4944 20.7007 22.3033C20.793 22.1123 20.8368 21.8997 20.8278 21.686V21.6887C20.8278 21.5133 20.7798 21.35 20.6973 21.2119L20.6992 21.2159C20.6212 21.0783 20.5249 20.9528 20.4131 20.8432L20.4125 20.8426C20.2637 20.7126 20.1001 20.6022 19.9254 20.5139L19.9114 20.5072C19.6827 20.3854 19.4949 20.2901 19.3482 20.2212C19.2014 20.1523 18.9729 20.0556 18.6627 19.9311C18.44 19.836 18.2642 19.7615 18.1354 19.7078C18.0065 19.654 17.8307 19.5751 17.608 19.4711C17.3853 19.367 17.2067 19.2748 17.0723 19.1944C16.9379 19.1139 16.7764 19.0083 16.5879 18.8777C16.4226 18.7668 16.2681 18.6395 16.1264 18.4976L16.1271 18.4983C15.9985 18.3627 15.8767 18.2203 15.7623 18.0716L15.7539 18.0609C15.6327 17.9078 15.5322 17.7382 15.4551 17.5568L15.4499 17.5428C15.3756 17.3587 15.3167 17.1682 15.2739 16.9734L15.2695 16.9494C15.2205 16.7259 15.196 16.4973 15.1965 16.268V16.252V16.232C15.1965 15.3985 15.5171 14.6425 16.0375 14.0917L16.0368 14.0924C16.6168 13.4642 17.3747 13.0462 18.1994 12.8996L18.2224 12.8962V11.286V11.2834C18.2224 11.2054 18.2538 11.1347 18.3037 11.0847C18.3284 11.0579 18.358 11.0366 18.3907 11.022C18.4235 11.0075 18.4588 11 18.4944 11H19.6637C19.8096 11 19.928 11.1233 19.928 11.2754V11.2867V11.286V12.8576C20.28 12.8962 20.6013 12.9689 20.9091 13.0729L20.8752 13.0629C21.169 13.1563 21.416 13.2583 21.6534 13.377L21.6202 13.3623C21.8301 13.471 22.0086 13.5823 22.1776 13.7063L22.1648 13.697C22.3355 13.8224 22.4468 13.9086 22.4989 13.9557C22.5509 14.0028 22.5938 14.0444 22.6275 14.0804C22.6736 14.1217 22.7033 14.1792 22.7111 14.242C22.7189 14.3047 22.7042 14.3683 22.6698 14.4204L22.6704 14.4198L21.9779 15.7239C21.9606 15.764 21.9332 15.7985 21.8986 15.8236C21.864 15.8487 21.8235 15.8636 21.7814 15.8666H21.7808C21.7402 15.8754 21.6981 15.8743 21.6579 15.8635C21.6178 15.8526 21.5805 15.8322 21.5491 15.8039H21.5498C21.5327 15.7862 21.4913 15.7506 21.4256 15.6973C21.3599 15.6439 21.2485 15.565 21.0915 15.4606C20.9392 15.3588 20.7808 15.2673 20.6173 15.1865L20.5904 15.1745C20.3934 15.0802 20.1886 15.0045 19.9786 14.9485L19.9517 14.9425C19.7131 14.8745 19.4669 14.8399 19.2195 14.8398H19.2189C18.7449 14.8172 18.2765 14.9537 17.8826 15.2292L17.8909 15.2239C17.673 15.3747 17.5109 15.5982 17.4311 15.8578C17.3513 16.1173 17.3586 16.3974 17.4519 16.652L17.4493 16.644C17.5082 16.7907 17.5939 16.9147 17.7015 17.0141L17.7027 17.0148C17.8058 17.1154 17.9159 17.2121 18.0311 17.3021L18.0413 17.3095C18.1789 17.4081 18.337 17.5008 18.5027 17.5782L18.5219 17.5862C18.7361 17.6902 18.9089 17.7706 19.0403 17.8275C19.1717 17.8844 19.3718 17.9662 19.6406 18.0729C19.9436 18.192 20.175 18.2858 20.335 18.3543C20.495 18.4227 20.7122 18.5269 20.9866 18.667C21.2177 18.78 21.4404 18.9108 21.6528 19.0583L21.6342 19.0463C21.8326 19.193 22.0054 19.3397 22.1699 19.4964L22.1661 19.4924C22.3434 19.6537 22.4944 19.8404 22.6147 20.0491L22.6205 20.0598C22.7267 20.2552 22.8182 20.4825 22.8848 20.7205L22.8906 20.7432C22.9603 20.9866 23 21.2666 23 21.556V21.584V21.5827L22.9962 21.5793Z" fill="url(#paint1_linear_3679_2781)"/>
<defs>
<linearGradient id="paint0_linear_3679_2781" x1="8" y1="13" x2="29.4372" y2="28.9109" gradientUnits="userSpaceOnUse">
<stop stop-color="#40BA93"/>
<stop offset="0.383354" stop-color="#5ADEB4"/>
<stop offset="1" stop-color="#560397"/>
</linearGradient>
<linearGradient id="paint1_linear_3679_2781" x1="15.5" y1="15.5" x2="28.5" y2="30" gradientUnits="userSpaceOnUse">
<stop stop-color="#40BA93"/>
<stop offset="1" stop-color="#820EDE"/>
</linearGradient>
</defs>
</svg>
