<svg width="65" height="49" viewBox="0 0 65 49" fill="none" xmlns="http://www.w3.org/2000/svg">
<circle cx="24.5" cy="24.5" r="24.5" fill="#1F1E20"/>
<path d="M29.5446 31.1267L34.8304 19.6958H38.3985L27.7223 42.4455H24.2617L27.7223 34.6425L25.4398 28.2904H28.5013L29.5446 31.1267Z" fill="url(#paint0_linear_3766_2466)"/>
<path fill-rule="evenodd" clip-rule="evenodd" d="M20.6169 6.6084L22.292 11.2286L24.2432 16.4931H21.0587L20.6933 15.4497L18.0952 22.3098L17.7853 23.1565L20.0832 23.1565L21.0404 25.7335H16.8424L13.7981 34.0536H10.7793L20.6169 6.6084ZM25.4396 19.6959H22.2368L24.4456 25.7334H27.63L25.4396 19.6959Z" fill="#40BA93"/>
<circle cx="52.5" cy="12.5" r="12.5" fill="url(#paint1_linear_3766_2466)"/>
<path d="M50.11 13.21L51.89 16H50.6L49.41 14.13L48.29 16H47.1L48.88 13.29L47.1 10.49H48.39L49.58 12.36L50.7 10.49H51.89L50.11 13.21ZM53.2202 14.45C53.8602 13.8967 54.3636 13.4433 54.7302 13.09C55.1036 12.73 55.4136 12.3567 55.6602 11.97C55.9069 11.5833 56.0302 11.1967 56.0302 10.81C56.0302 10.41 55.9336 10.0967 55.7402 9.87C55.5536 9.64333 55.2569 9.53 54.8502 9.53C54.4569 9.53 54.1502 9.65667 53.9302 9.91C53.7169 10.1567 53.6036 10.49 53.5902 10.91H52.4902C52.5102 10.15 52.7369 9.57 53.1702 9.17C53.6102 8.76333 54.1669 8.56 54.8402 8.56C55.5669 8.56 56.1336 8.76 56.5402 9.16C56.9536 9.56 57.1602 10.0933 57.1602 10.76C57.1602 11.24 57.0369 11.7033 56.7902 12.15C56.5502 12.59 56.2602 12.9867 55.9202 13.34C55.5869 13.6867 55.1602 14.09 54.6402 14.55L54.1902 14.95H57.3602V15.9H52.5002V15.07L53.2202 14.45Z" fill="white"/>
<defs>
<linearGradient id="paint0_linear_3766_2466" x1="30.152" y1="23.7454" x2="29.6824" y2="44.0838" gradientUnits="userSpaceOnUse">
<stop stop-color="#40BA93"/>
<stop offset="1" stop-color="#9206E8" stop-opacity="0.37"/>
</linearGradient>
<linearGradient id="paint1_linear_3766_2466" x1="48.5" y1="-1" x2="70.5" y2="33" gradientUnits="userSpaceOnUse">
<stop stop-color="#131313"/>
<stop offset="1" stop-color="#D20373"/>
</linearGradient>
</defs>
</svg>
