<svg width="38" height="38" viewBox="0 0 38 38" fill="none" xmlns="http://www.w3.org/2000/svg">
<circle cx="19" cy="19" r="19" fill="#1F1E20"/>
<path d="M15.6 19.8889V23.2444C15.6 23.3549 15.5105 23.4444 15.4 23.4444H14.2C14.0895 23.4444 14 23.534 14 23.6444V25.0222C14 25.1327 14.0895 25.2222 14.2 25.2222H16.2C16.3105 25.2222 16.4 25.3118 16.4 25.4222V26.8C16.4 26.9105 16.4895 27 16.6 27H17.8C17.9105 27 18 26.9105 18 26.8V25.4222C18 25.3118 18.0895 25.2222 18.2 25.2222H19.4C19.5105 25.2222 19.6 25.3118 19.6 25.4222V26.8C19.6 26.9105 19.6895 27 19.8 27H21C21.1105 27 21.2 26.9105 21.2 26.8V25.3507C21.2 25.251 21.2737 25.1673 21.3714 25.1476C22.8625 24.8467 24 23.4085 24 21.6667C24 20.5725 23.5478 19.599 22.8446 18.9471C22.7614 18.87 22.7509 18.7403 22.8207 18.6509C23.3215 18.0096 23.5996 17.1872 23.6 16.3333C23.6 14.7397 22.6473 13.3984 21.3434 12.9494C21.2592 12.9204 21.2 12.8427 21.2 12.7536V11.2C21.2 11.0895 21.1105 11 21 11H19.8C19.6895 11 19.6 11.0895 19.6 11.2V12.5778C19.6 12.6882 19.5105 12.7778 19.4 12.7778H18.2C18.0895 12.7778 18 12.6882 18 12.5778V11.2C18 11.0895 17.9105 11 17.8 11H16.6C16.4895 11 16.4 11.0895 16.4 11.2V12.5778C16.4 12.6882 16.3105 12.7778 16.2 12.7778H14.2C14.0895 12.7778 14 12.8673 14 12.9778V14.3556C14 14.466 14.0895 14.5556 14.2 14.5556H15.4C15.5105 14.5556 15.6 14.6451 15.6 14.7556V19.8889ZM20.8 23.4444H17.4C17.2895 23.4444 17.2 23.3549 17.2 23.2444V20.0889C17.2 19.9784 17.2895 19.8889 17.4 19.8889H20.8C21.6824 19.8889 22.4 20.6862 22.4 21.6667C22.4 22.6471 21.6824 23.4444 20.8 23.4444ZM17.2 14.7556C17.2 14.6451 17.2895 14.5556 17.4 14.5556H20.4C21.2824 14.5556 22 15.3529 22 16.3333C22 17.3138 21.2824 18.1111 20.4 18.1111H17.4C17.2895 18.1111 17.2 18.0216 17.2 17.9111V14.7556Z" fill="#FBBC1B"/>
<path d="M22.0674 7.29766C22.1938 6.81561 22.6883 6.52423 23.1604 6.68371C24.602 7.17066 25.9491 7.9077 27.1392 8.86326C28.5642 10.0074 29.7319 11.4392 30.5662 13.0652C31.4005 14.6911 31.8826 16.4747 31.9811 18.2995C32.0796 20.1244 31.7922 21.9495 31.1377 23.6558C30.4832 25.3621 29.4763 26.9112 28.1827 28.202C26.8891 29.4929 25.3379 30.4966 23.6302 31.1475C21.9226 31.7984 20.0969 32.0819 18.2722 31.9796C16.7484 31.8942 15.2539 31.5412 13.8565 30.9392C13.3988 30.742 13.226 30.1947 13.4545 29.7518V29.7518C13.6829 29.3089 14.226 29.1387 14.6858 29.3307C15.856 29.8194 17.1028 30.1066 18.3733 30.1778C19.9446 30.2659 21.5169 30.0217 22.9875 29.4612C24.4581 28.9006 25.794 28.0363 26.908 26.9246C28.022 25.813 28.8891 24.4789 29.4528 23.0095C30.0164 21.54 30.2639 19.9683 30.1791 18.3968C30.0943 16.8253 29.6791 15.2893 28.9606 13.889C28.2421 12.4888 27.2365 11.2558 26.0093 10.2704C25.0171 9.47374 23.8981 8.85344 22.7013 8.43419C22.231 8.26943 21.9411 7.77971 22.0674 7.29766V7.29766Z" fill="url(#paint0_linear_3682_2871)"/>
<path d="M15.0891 30.4481C14.928 30.9197 14.4136 31.1743 13.9544 30.9809C12.5921 30.4072 11.3355 29.6044 10.2401 28.6054C8.92202 27.4034 7.86548 25.9429 7.13616 24.315C6.40685 22.6871 6.02037 20.9265 6.00078 19.1428C5.9812 17.359 6.32891 15.5904 7.0223 13.9468C7.71569 12.3033 8.73991 10.82 10.0312 9.58931C11.3225 8.35864 12.8533 7.40689 14.5283 6.79329C16.2033 6.17969 17.9866 5.91737 19.7673 6.02267C21.2473 6.11017 22.6992 6.45005 24.0607 7.02549C24.5198 7.21949 24.6964 7.76562 24.471 8.21009V8.21009C24.2456 8.65455 23.7037 8.82851 23.2426 8.63966C22.1036 8.17325 20.8935 7.89705 19.6608 7.82416C18.1273 7.73348 16.5915 7.95938 15.149 8.4878C13.7066 9.01622 12.3883 9.83585 11.2763 10.8957C10.1642 11.9555 9.28216 13.2329 8.68503 14.6483C8.08789 16.0637 7.78844 17.5868 7.80531 19.1229C7.82218 20.659 8.15501 22.1752 8.78308 23.5772C9.41115 24.9791 10.321 26.2368 11.4561 27.272C12.3685 28.1041 13.4108 28.7781 14.5396 29.2685C14.9967 29.467 15.2502 29.9765 15.0891 30.4481V30.4481Z" fill="url(#paint1_linear_3682_2871)"/>
<defs>
<linearGradient id="paint0_linear_3682_2871" x1="20.5" y1="33" x2="36" y2="10.5" gradientUnits="userSpaceOnUse">
<stop stop-color="#FBBC1B"/>
<stop offset="1" stop-color="#FBBC1B" stop-opacity="0"/>
</linearGradient>
<linearGradient id="paint1_linear_3682_2871" x1="22" y1="6.5" x2="5.5" y2="35" gradientUnits="userSpaceOnUse">
<stop stop-color="#FBBC1B"/>
<stop offset="1" stop-color="#FBBC1B" stop-opacity="0"/>
</linearGradient>
</defs>
</svg>
