<svg width="1471" height="1479" viewBox="0 0 1471 1479" fill="none" xmlns="http://www.w3.org/2000/svg">
<path d="M550.803 804.952V973.526H466.693V1057.81H592.857V1142.1H676.967V1057.81H761.076V1142.1H845.186V1055.66C927.949 1045.17 992.377 974.959 992.377 889.239C992.377 833.609 965.042 784.555 923.408 753.832C954.113 722.478 971.326 680.309 971.35 636.378C971.35 558.076 917.562 492.627 845.186 473.789V383.518H761.076V467.804H676.967V383.518H592.857V467.804H466.693V552.091H550.803V804.952ZM824.158 973.526H634.912V804.952H824.158C870.545 804.952 908.268 842.755 908.268 889.239C908.268 935.723 870.545 973.526 824.158 973.526ZM634.912 552.091H803.131C849.517 552.091 887.24 589.894 887.24 636.378C887.24 682.862 849.517 720.665 803.131 720.665H634.912V552.091Z" fill="#FBBC1B"/>
<mask id="path-2-inside-1" fill="white">
<rect x="879.252" y="24.189" width="186.318" height="299.44" rx="5" transform="rotate(90 879.252 24.189)"/>
</mask>
<rect x="879.252" y="24.189" width="186.318" height="299.44" rx="5" transform="rotate(90 879.252 24.189)" stroke="#FBBC1B" stroke-width="80" mask="url(#path-2-inside-1)"/>
<mask id="path-3-inside-2" fill="white">
<rect x="1444.87" y="889.238" width="186.318" height="299.44" rx="5" transform="rotate(-180 1444.87 889.238)"/>
</mask>
<rect x="1444.87" y="889.238" width="186.318" height="299.44" rx="5" transform="rotate(-180 1444.87 889.238)" stroke="#FBBC1B" stroke-width="80" mask="url(#path-3-inside-2)"/>
<mask id="path-4-inside-3" fill="white">
<rect x="200.523" y="889.238" width="186.318" height="299.44" rx="5" transform="rotate(-180 200.523 889.238)"/>
</mask>
<rect x="200.523" y="889.238" width="186.318" height="299.44" rx="5" transform="rotate(-180 200.523 889.238)" stroke="#FBBC1B" stroke-width="80" mask="url(#path-4-inside-3)"/>
<mask id="path-5-inside-4" fill="white">
<rect x="1423.89" y="511.516" width="186.318" height="299.44" rx="5" transform="rotate(150 1423.89 511.516)"/>
</mask>
<rect x="1423.89" y="511.516" width="186.318" height="299.44" rx="5" transform="rotate(150 1423.89 511.516)" stroke="#FBBC1B" stroke-width="80" mask="url(#path-5-inside-4)"/>
<mask id="path-6-inside-5" fill="white">
<rect x="346.256" y="1133.69" width="186.318" height="299.44" rx="5" transform="rotate(150 346.256 1133.69)"/>
</mask>
<rect x="346.256" y="1133.69" width="186.318" height="299.44" rx="5" transform="rotate(150 346.256 1133.69)" stroke="#FBBC1B" stroke-width="80" mask="url(#path-6-inside-5)"/>
<mask id="path-7-inside-6" fill="white">
<rect x="1216.87" y="194.888" width="186.318" height="299.44" rx="5" transform="rotate(120 1216.87 194.888)"/>
</mask>
<rect x="1216.87" y="194.888" width="186.318" height="299.44" rx="5" transform="rotate(120 1216.87 194.888)" stroke="#FBBC1B" stroke-width="80" mask="url(#path-7-inside-6)"/>
<mask id="path-8-inside-7" fill="white">
<rect x="501.535" y="45.168" width="186.318" height="299.44" rx="5" transform="rotate(60 501.535 45.168)"/>
</mask>
<rect x="501.535" y="45.168" width="186.318" height="299.44" rx="5" transform="rotate(60 501.535 45.168)" stroke="#FBBC1B" stroke-width="80" mask="url(#path-8-inside-7)"/>
<mask id="path-9-inside-8" fill="white">
<rect x="184.912" y="252.19" width="186.318" height="299.44" rx="5" transform="rotate(30 184.912 252.19)"/>
</mask>
<rect x="184.912" y="252.19" width="186.318" height="299.44" rx="5" transform="rotate(30 184.912 252.19)" stroke="#FBBC1B" stroke-width="80" mask="url(#path-9-inside-8)"/>
<mask id="path-10-inside-9" fill="white">
<rect x="1262.55" y="874.36" width="186.318" height="299.44" rx="5" transform="rotate(30 1262.55 874.36)"/>
</mask>
<rect x="1262.55" y="874.36" width="186.318" height="299.44" rx="5" transform="rotate(30 1262.55 874.36)" stroke="#FBBC1B" stroke-width="80" mask="url(#path-10-inside-9)"/>
<path d="M201.308 349.977C213.424 318.08 232.915 289.502 258.19 266.579C283.464 243.656 313.804 227.039 346.729 218.085L357.007 255.882C330.045 263.214 305.201 276.822 284.504 295.593C263.808 314.364 247.847 337.766 237.925 363.886L201.308 349.977Z" fill="#FBBC1B"/>
<path d="M81.9402 667.354C76.4842 633.672 79.0753 599.177 89.502 566.688C99.9287 534.199 117.895 504.638 141.932 480.422L169.732 508.016C150.049 527.846 135.336 552.053 126.798 578.658C118.26 605.262 116.138 633.509 120.606 661.091L81.9402 667.354Z" fill="#FBBC1B"/>
<path d="M1310.6 997.505C1333.93 972.601 1351.03 942.532 1360.51 909.755C1369.99 876.977 1371.58 842.421 1365.15 808.912L1326.68 816.293C1331.95 843.733 1330.64 872.03 1322.88 898.871C1315.12 925.712 1301.11 950.335 1282.01 970.728L1310.6 997.505Z" fill="#FBBC1B"/>
<path d="M138.138 1005.22C116.572 978.779 101.569 947.61 94.3539 914.26C87.1391 880.911 87.918 846.327 96.6267 813.336L134.499 823.334C127.368 850.349 126.73 878.669 132.638 905.978C138.546 933.287 150.832 958.811 168.492 980.464L138.138 1005.22Z" fill="#FBBC1B"/>
<path d="M1366.38 673.481C1374.13 640.251 1373.9 605.66 1365.72 572.533C1357.54 539.407 1341.64 508.686 1319.32 482.88L1289.7 508.507C1307.98 529.638 1321 554.795 1327.7 581.922C1334.39 609.048 1334.58 637.375 1328.23 664.586L1366.38 673.481Z" fill="#FBBC1B"/>
<path d="M1246.89 368.31C1236.99 335.658 1219.5 305.813 1195.86 281.214C1172.21 256.614 1143.08 237.959 1110.84 226.773L1098 263.778C1124.4 272.938 1148.25 288.214 1167.62 308.358C1186.98 328.502 1201.3 352.942 1209.41 379.68L1246.89 368.31Z" fill="#FBBC1B"/>
<path d="M984.198 157.11C959.295 133.784 929.226 116.683 896.448 107.202C863.67 97.7212 829.115 96.131 795.605 102.561L802.986 141.029C830.427 135.764 858.724 137.066 885.565 144.829C912.405 152.593 937.028 166.597 957.421 185.698L984.198 157.11Z" fill="#FBBC1B"/>
<path d="M660.166 107.991C626.936 100.242 592.344 100.466 559.218 108.644C526.091 116.822 495.37 132.723 469.565 155.046L495.191 184.67C516.323 166.39 541.48 153.369 568.606 146.672C595.733 139.975 624.059 139.792 651.27 146.137L660.166 107.991Z" fill="#FBBC1B"/>
</svg>
