<svg width="21" height="17" viewBox="0 0 21 17" fill="none" xmlns="http://www.w3.org/2000/svg">
<path d="M15.1803 9.50806L11.0192 12.0842C10.6661 12.3013 10.2137 12.0371 10.2137 11.5978V10.5921C10.2137 10.5921 6.8516 10.1998 4.98291 13.7306C5.7296 7.45367 9.09299 7.45367 10.2137 7.45367V6.44806C10.2137 6.00867 10.6661 5.74452 11.0192 5.9629L15.1803 8.53775C15.5334 8.75483 15.5334 9.29098 15.1803 9.50806Z" fill="#4F4F4F"/>
<path d="M0.405976 2.61538L0.458284 3.75308C0.11327 4.25464 -0.044985 4.86128 0.0110528 5.46746L0.844053 14.6213C0.903103 15.2711 1.20292 15.8754 1.68463 16.3155C2.16635 16.7556 2.79518 16.9997 3.44767 17H16.9797C17.6322 16.9997 18.261 16.7556 18.7427 16.3155C19.2244 15.8754 19.5242 15.2711 19.5833 14.6213L20.4163 5.46746C20.4492 5.10552 20.4063 4.74069 20.2903 4.39626C20.1743 4.05182 19.9879 3.73533 19.7428 3.46698C19.4977 3.19863 19.1993 2.98431 18.8668 2.83768C18.5342 2.69106 18.1748 2.61535 17.8114 2.61538H12.6041C11.9105 2.61524 11.2454 2.33959 10.7551 1.84908L9.67228 0.766308C9.18192 0.275794 8.51679 0.000148129 7.82321 0H3.02136C2.32772 0 1.66248 0.275549 1.172 0.766028C0.681525 1.25651 0.405976 1.92174 0.405976 2.61538ZM1.31351 5.34846C1.29717 5.16754 1.31869 4.9852 1.37672 4.81306C1.43474 4.64092 1.52799 4.48276 1.65053 4.34865C1.77307 4.21455 1.92221 4.10745 2.08843 4.03418C2.25465 3.9609 2.43432 3.92307 2.61598 3.92308H17.8114C17.993 3.92307 18.1727 3.9609 18.3389 4.03418C18.5051 4.10745 18.6543 4.21455 18.7768 4.34865C18.8993 4.48276 18.9926 4.64092 19.0506 4.81306C19.1086 4.9852 19.1302 5.16754 19.1138 5.34846L18.2821 14.5023C18.2527 14.8274 18.1028 15.1298 17.8618 15.35C17.6208 15.5702 17.3061 15.6923 16.9797 15.6923H3.44767C3.12143 15.692 2.80709 15.5698 2.56636 15.3496C2.32562 15.1294 2.17588 14.8272 2.14651 14.5023L1.31351 5.34846ZM7.82321 1.30769C8.17 1.30777 8.50256 1.44559 8.74774 1.69085L9.67228 2.61538H2.61598C2.30213 2.61538 2.00136 2.67031 1.72282 2.77231L1.71367 2.58923C1.72051 2.24696 1.86131 1.92103 2.10581 1.68141C2.35031 1.4418 2.67902 1.30762 3.02136 1.30769H7.82321Z" fill="#4F4F4F"/>
</svg>
