<svg width="21" height="22" viewBox="0 0 21 22" fill="none" xmlns="http://www.w3.org/2000/svg">
<path d="M18.8092 6.15428C19.0214 6.15416 19.2306 6.20553 19.4186 6.30398C19.6067 6.40243 19.768 6.54502 19.8889 6.71953L19.9589 6.83503C20.596 7.87057 20.9523 9.05418 20.9929 10.2693C21.0335 11.4844 20.7569 12.6892 20.1903 13.7649C19.6238 14.8407 18.7868 15.7503 17.7618 16.4042C16.7368 17.0581 15.5592 17.4338 14.3449 17.4943L13.9967 17.503L9.7179 17.5013L10.9814 18.7648C11.2041 18.9871 11.3396 19.2821 11.363 19.5959C11.3865 19.9098 11.2964 20.2216 11.1092 20.4745L10.9814 20.6215C10.759 20.8435 10.4642 20.9784 10.1508 21.0015C9.83735 21.0246 9.52602 20.9345 9.2734 20.7475L9.1264 20.6215L5.6229 17.118C5.40062 16.8958 5.26547 16.6012 5.24203 16.2877C5.21858 15.9743 5.3084 15.6629 5.49515 15.41L5.6229 15.2613L9.1264 11.7595C9.3609 11.5269 9.67452 11.3912 10.0047 11.3795C10.3348 11.3679 10.6572 11.4812 10.9075 11.6968C11.1578 11.9124 11.3175 12.2145 11.3549 12.5427C11.3923 12.8709 11.3045 13.2012 11.1092 13.4675L10.9814 13.6145L9.71965 14.8763H13.9967C15.1071 14.8765 16.1761 14.4544 16.9869 13.6956C17.7977 12.9368 18.2896 11.8981 18.3629 10.79L18.3717 10.503C18.3717 9.63678 18.1197 8.83003 17.6874 8.15103C17.5658 7.95194 17.4994 7.72404 17.4951 7.49077C17.4909 7.25751 17.5489 7.02733 17.6631 6.82393C17.7774 6.62053 17.9438 6.45126 18.1453 6.33356C18.3467 6.21586 18.5759 6.15397 18.8092 6.15428V6.15428ZM10.0066 0.384531C10.2289 0.16225 10.5235 0.0271016 10.8369 0.00365774C11.1504 -0.0197861 11.4618 0.0700321 11.7147 0.256781L11.8616 0.384531L15.3652 3.88628L15.4929 4.03503C15.6577 4.25803 15.7477 4.5275 15.7499 4.80479C15.7521 5.08208 15.6664 5.35295 15.5052 5.57853L15.3652 5.74303L11.8616 9.24653L11.7147 9.37253C11.4918 9.53762 11.2225 9.6279 10.9452 9.63041C10.6679 9.63293 10.3969 9.54755 10.1712 9.38653L10.0066 9.24653L9.8789 9.09953C9.71366 8.87637 9.62346 8.60656 9.62126 8.3289C9.61906 8.05124 9.70497 7.78003 9.86665 7.55428L10.0066 7.38978L11.2684 6.12628H6.99665C5.88589 6.12611 4.81666 6.54844 4.00582 7.3076C3.19499 8.06676 2.70327 9.10592 2.6304 10.2143L2.62165 10.503C2.62165 11.2398 2.80365 11.9345 3.12565 12.5453L3.31815 12.8673C3.49474 13.1649 3.54666 13.5202 3.4626 13.8559C3.37854 14.1916 3.16531 14.4805 2.86931 14.6597C2.57331 14.839 2.21849 14.8941 1.88206 14.8131C1.54563 14.732 1.25482 14.5214 1.0729 14.227C0.423309 13.1932 0.0554307 12.0074 0.00578897 10.7875C-0.0438528 9.56749 0.226469 8.35576 0.789915 7.27256C1.35336 6.18936 2.19033 5.27238 3.21774 4.61266C4.24514 3.95293 5.42723 3.57342 6.64665 3.51178L6.99665 3.50303L11.2666 3.50128L10.0066 2.24128L9.8789 2.09253C9.69215 1.83971 9.60233 1.52826 9.62578 1.21482C9.64922 0.901381 9.78437 0.606761 10.0066 0.384531Z" fill="#4F4F4F"/>
</svg>
