<svg width="20" height="23" viewBox="0 0 20 23" fill="none" xmlns="http://www.w3.org/2000/svg">
<path d="M12.741 11.0405L12.1414 10.4404L12.1384 10.4374L12.1384 10.4373C12.0114 10.3058 11.9411 10.1296 11.9427 9.94678C11.9443 9.76393 12.0176 9.58901 12.1469 9.4597C12.2762 9.33039 12.4512 9.25705 12.634 9.25546C12.8169 9.25387 12.993 9.32417 13.1246 9.45121L13.1277 9.45422L13.1277 9.45425L14.9171 11.2437L12.741 11.0405ZM12.741 11.0405H3.68633V11.0403L3.67639 11.0407C3.47332 11.0488 3.27077 11.0147 3.0815 10.9407C2.89223 10.8667 2.72032 10.7543 2.57662 10.6105C2.43291 10.4668 2.3205 10.2949 2.24648 10.1057C2.17245 9.91639 2.13841 9.71384 2.14648 9.51077L2.14668 9.51078V9.50083V3.23706C2.14668 2.94738 2.26176 2.66957 2.46659 2.46473C2.67142 2.2599 2.94924 2.14482 3.23892 2.14482H12.3458L16.7673 6.56636H14.4242C14.1345 6.56636 13.8567 6.45128 13.6519 6.24645C13.4471 6.04162 13.332 5.7638 13.332 5.47412V4.13188C13.332 3.94692 13.2585 3.76953 13.1277 3.63874C12.9969 3.50795 12.8195 3.43447 12.6346 3.43447C12.4496 3.43447 12.2722 3.50795 12.1414 3.63874C12.0106 3.76953 11.9372 3.94692 11.9372 4.13188V5.47412V5.47442C11.9379 6.13371 12.2002 6.76577 12.6664 7.23195C13.1326 7.69814 13.7646 7.96039 14.4239 7.96118H14.4242H17.7535V13.975C17.7535 14.1599 17.827 14.3373 17.9578 14.4681C18.0886 14.5989 18.266 14.6724 18.4509 14.6724C18.6359 14.6724 18.8133 14.5989 18.9441 14.4681C19.0749 14.3373 19.1483 14.1599 19.1483 13.975V7.26383C19.1483 7.26381 19.1483 7.26379 19.1483 7.26377C19.1484 7.1714 19.1299 7.07997 19.094 6.99486C19.059 6.91092 19.0079 6.83464 18.9437 6.7703L18.9436 6.77023L13.1272 0.953867L13.127 0.953644C12.9963 0.823272 12.8192 0.750039 12.6346 0.75H12.6346L3.23892 0.75L3.23862 0.75C2.57933 0.75079 1.94727 1.01304 1.48109 1.47923C1.0149 1.94541 0.752648 2.57747 0.751858 3.23676V3.23706V9.4962C0.737779 9.88513 0.803836 10.2728 0.945945 10.6352C1.08864 10.999 1.30495 11.3295 1.58131 11.6058C1.85767 11.8822 2.18814 12.0985 2.55199 12.2412C2.91434 12.3833 3.30203 12.4494 3.69096 12.4353H12.7406L12.1428 13.0331C12.077 13.0971 12.0245 13.1734 11.9883 13.2578C11.9517 13.3429 11.9325 13.4344 11.9317 13.527C11.9309 13.6196 11.9485 13.7114 11.9836 13.7971C12.0187 13.8828 12.0704 13.9607 12.1359 14.0262C12.2014 14.0917 12.2793 14.1434 12.365 14.1785C12.4507 14.2136 12.5425 14.2312 12.6351 14.2304C12.7277 14.2296 12.8193 14.2104 12.9043 14.1738C12.9887 14.1376 13.065 14.0851 13.129 14.0193L14.9171 12.2312L14.9173 12.231L14.7405 12.0542C14.7823 12.0125 14.8153 11.963 14.8376 11.9084C14.8829 11.7989 14.8829 11.676 14.8376 11.5665C14.8153 11.5119 14.7823 11.4623 14.7405 11.4207L12.9509 9.63103C12.8665 9.54953 12.7535 9.50443 12.6362 9.50545C12.5189 9.50647 12.4067 9.55352 12.3237 9.63648C12.2407 9.71943 12.1937 9.83165 12.1927 9.94896L12.741 11.0405ZM15.0687 12.0039C15.0687 12.0038 15.0688 12.0036 15.0688 12.0035C15.0689 12.0034 15.069 12.0032 15.069 12.003L14.8377 11.9084L15.0687 12.0039ZM15.0688 11.4715C15.034 11.3863 14.9824 11.3089 14.9173 11.2439L15.0688 11.4715Z" fill="white" stroke="white" stroke-width="0.5"/>
<path d="M18.4354 16.1744L18.6287 16.0159C18.0992 15.37 17.2672 15.0672 16.2136 15.0672H6.71186L7.311 14.468L7.31103 14.4681L7.31405 14.4649C7.44108 14.3334 7.51138 14.1572 7.50979 13.9744C7.5082 13.7915 7.43486 13.6166 7.30555 13.4873C7.17624 13.358 7.00132 13.2847 6.81846 13.2831C6.63561 13.2815 6.45944 13.3518 6.3279 13.4788L6.32788 13.4788L6.32481 13.4819L4.53533 15.2713C4.53529 15.2714 4.53524 15.2714 4.53519 15.2715C4.53518 15.2715 4.53517 15.2715 4.53516 15.2715C4.47004 15.3365 4.41852 15.4139 4.38363 15.4991C4.31334 15.6694 4.31334 15.8607 4.38363 16.031M18.4354 16.1744L18.0032 18.0017L17.7532 18.0029C17.7532 18.0026 17.7532 18.0023 17.7532 18.002C17.753 17.9574 17.7574 17.9128 17.7662 17.869M18.4354 16.1744L18.6355 16.0246C18.8533 16.3154 19.0106 16.6469 19.0982 16.9996C19.1841 17.3457 19.201 17.7053 19.148 18.0579M18.4354 16.1744L19.148 18.0579M4.38363 16.031C4.38357 16.0309 4.38351 16.0307 4.38345 16.0306L4.61485 15.936L4.38381 16.0315C4.38375 16.0313 4.38369 16.0312 4.38363 16.031ZM4.38363 16.031C4.41852 16.1162 4.47003 16.1936 4.53516 16.2586L4.71187 16.0819L4.53533 16.2588L6.32481 18.0482L6.32478 18.0483L6.3279 18.0513C6.45944 18.1783 6.63561 18.2486 6.81846 18.247C7.00132 18.2454 7.17624 18.1721 7.30555 18.0428C7.43486 17.9135 7.5082 17.7386 7.50979 17.5557C7.51138 17.3728 7.44109 17.1967 7.31405 17.0651L7.31407 17.0651L7.31108 17.0621L6.71149 16.462M6.71149 16.462H16.2136H16.2269L16.2403 16.4606C16.481 16.4347 16.7245 16.4621 16.9535 16.5409C17.1751 16.6171 17.3779 16.7396 17.5483 16.9002M6.71149 16.462H6.35809M6.71149 16.462L6.46171 16.212H16.2136L6.35809 16.462M17.5483 16.9002C17.7416 17.1834 17.8197 17.5299 17.7662 17.869M17.5483 16.9002C17.544 16.8939 17.5396 16.8875 17.5352 16.8813L17.7392 16.7368L17.5653 16.9164C17.5597 16.9109 17.554 16.9055 17.5483 16.9002ZM17.7662 17.869C17.7666 17.8668 17.7671 17.8645 17.7676 17.8622L18.0122 17.914L17.7654 17.8741C17.7656 17.8724 17.7659 17.8707 17.7662 17.869ZM19.148 18.0579V18.0388H18.898L19.145 18.0777C19.146 18.0711 19.147 18.0645 19.148 18.0579ZM6.35809 16.462L7.13422 17.2388L6.35809 16.462ZM1.00155 20.2387L0.751724 20.2293C0.751663 20.2309 0.751603 20.2325 0.751545 20.2341V20.2387H1.00155ZM3.23861 22.7258H3.2432C3.24482 22.7257 3.24645 22.7257 3.24807 22.7256L3.23861 22.4758V22.7258Z" fill="white" stroke="white" stroke-width="0.5"/>
</svg>
