<svg width="26" height="26" viewBox="0 0 26 26" fill="none" xmlns="http://www.w3.org/2000/svg">
<path fill-rule="evenodd" clip-rule="evenodd" d="M12.7854 0.00177728C12.2872 0.010018 11.9191 0.450472 11.9619 0.94697C12.0046 1.44347 12.4422 1.80746 12.9405 1.8048C15.1347 1.79308 17.2848 2.42679 19.1218 3.62666C19.539 3.89917 20.1041 3.83067 20.4093 3.43673C20.7145 3.04279 20.6441 2.47313 20.23 2.19596C18.0301 0.723724 15.4321 -0.0419955 12.7854 0.00177728ZM23.1411 4.86628C22.8293 4.47754 22.2557 4.45654 21.8895 4.79455C21.5234 5.13255 21.5037 5.70134 21.8112 6.09355C22.6729 7.19288 23.3213 8.44392 23.7228 9.78178C23.8661 10.2591 24.3422 10.5709 24.8294 10.4666C25.3167 10.3622 25.6302 9.88144 25.4923 9.40256C25.0164 7.74988 24.2172 6.2079 23.1411 4.86628ZM25.0652 12.1146C25.5622 12.0782 25.998 12.4517 25.9999 12.9501C26.0082 15.1123 25.477 17.2476 24.4479 19.16C23.276 21.3379 21.5072 23.1363 19.3491 24.3441C17.191 25.552 14.733 26.1192 12.2639 25.9792C9.79467 25.8391 7.41666 24.9976 5.40894 23.5535C3.40122 22.1094 1.8471 20.1225 0.928983 17.826C0.010868 15.5296 -0.233141 13.0189 0.225595 10.5887C0.684332 8.15847 1.82678 5.9095 3.51884 4.10578C5.00465 2.52193 6.86011 1.3391 8.91265 0.659292C9.38572 0.502613 9.87851 0.796916 10.002 1.27971C10.1255 1.7625 9.83264 2.2505 9.36136 2.41246C7.64091 3.00372 6.08585 4.00708 4.835 5.34047C3.37783 6.8938 2.39397 8.83056 1.99892 10.9234C1.60386 13.0163 1.814 15.1785 2.60466 17.1561C3.39532 19.1337 4.73371 20.8448 6.46272 22.0885C8.19173 23.3322 10.2396 24.0568 12.3661 24.1774C14.4925 24.298 16.6092 23.8096 18.4677 22.7694C20.3263 21.7292 21.8495 20.1804 22.8587 18.3049C23.7251 16.6949 24.1817 14.9014 24.1951 13.0823C24.1987 12.584 24.5682 12.1511 25.0652 12.1146ZM9.60001 17.2445V13.8889V8.75558C9.60001 8.64512 9.51046 8.55558 9.4 8.55558H8.2C8.08955 8.55558 8 8.46604 8 8.35558V6.9778C8 6.86735 8.08955 6.7778 8.2 6.7778H10.2C10.3105 6.7778 10.4 6.68826 10.4 6.5778V5.20003C10.4 5.08957 10.4895 5.00003 10.6 5.00003H11.8C11.9105 5.00003 12 5.08957 12 5.20003V6.5778C12 6.68826 12.0895 6.7778 12.2 6.7778H13.4C13.5105 6.7778 13.6 6.68826 13.6 6.5778V5.20003C13.6 5.08957 13.6895 5.00003 13.8 5.00003H15C15.1105 5.00003 15.2 5.08957 15.2 5.20003V6.75358C15.2 6.84268 15.2592 6.92039 15.3435 6.9494C16.6473 7.39847 17.6 8.73969 17.6 10.3334C17.5996 11.1873 17.3215 12.0096 16.8207 12.6509C16.7509 12.7403 16.7614 12.87 16.8446 12.9471C17.5478 13.599 18 14.5725 18 15.6667C18 17.4085 16.8625 18.8468 15.3714 19.1476C15.2737 19.1673 15.2 19.2511 15.2 19.3508V20.8C15.2 20.9105 15.1105 21 15 21H13.8C13.6895 21 13.6 20.9105 13.6 20.8V19.4222C13.6 19.3118 13.5105 19.2222 13.4 19.2222H12.2C12.0895 19.2222 12 19.3118 12 19.4222V20.8C12 20.9105 11.9105 21 11.8 21H10.6C10.4895 21 10.4 20.9105 10.4 20.8V19.4222C10.4 19.3118 10.3105 19.2222 10.2 19.2222H8.2C8.08955 19.2222 8 19.1327 8 19.0222V17.6445C8 17.534 8.08955 17.4445 8.2 17.4445H9.4C9.51046 17.4445 9.60001 17.3549 9.60001 17.2445ZM11.4 17.4445H14.8C15.6824 17.4445 16.4 16.6471 16.4 15.6667C16.4 14.6862 15.6824 13.8889 14.8 13.8889H11.4C11.2895 13.8889 11.2 13.9785 11.2 14.0889V17.2445C11.2 17.3549 11.2895 17.4445 11.4 17.4445ZM11.4 8.55558C11.2895 8.55558 11.2 8.64512 11.2 8.75558V11.9111C11.2 12.0216 11.2895 12.1111 11.4 12.1111H14.4C15.2824 12.1111 16 11.3138 16 10.3334C16 9.35291 15.2824 8.55558 14.4 8.55558H11.4Z" fill="url(#paint0_linear_3679_2688)"/>
<defs>
<linearGradient id="paint0_linear_3679_2688" x1="2" y1="7" x2="20.4395" y2="22.9933" gradientUnits="userSpaceOnUse">
<stop stop-color="#40BA93"/>
<stop offset="0.383354" stop-color="#5ADEB4"/>
<stop offset="1" stop-color="#560397"/>
</linearGradient>
</defs>
</svg>
