<svg width="26" height="26" viewBox="0 0 26 26" fill="none" xmlns="http://www.w3.org/2000/svg">
<path d="M9.6 13.8889V17.2444C9.6 17.3549 9.51046 17.4444 9.4 17.4444H8.2C8.08954 17.4444 8 17.534 8 17.6444V19.0222C8 19.1327 8.08954 19.2222 8.2 19.2222H10.2C10.3105 19.2222 10.4 19.3118 10.4 19.4222V20.8C10.4 20.9105 10.4895 21 10.6 21H11.8C11.9105 21 12 20.9105 12 20.8V19.4222C12 19.3118 12.0895 19.2222 12.2 19.2222H13.4C13.5105 19.2222 13.6 19.3118 13.6 19.4222V20.8C13.6 20.9105 13.6895 21 13.8 21H15C15.1105 21 15.2 20.9105 15.2 20.8V19.3507C15.2 19.251 15.2737 19.1673 15.3714 19.1476C16.8625 18.8467 18 17.4085 18 15.6667C18 14.5725 17.5478 13.599 16.8446 12.9471C16.7614 12.87 16.7509 12.7403 16.8207 12.6509C17.3215 12.0096 17.5996 11.1872 17.6 10.3333C17.6 8.73967 16.6473 7.39844 15.3434 6.94938C15.2592 6.92036 15.2 6.84266 15.2 6.75356V5.2C15.2 5.08954 15.1105 5 15 5H13.8C13.6895 5 13.6 5.08954 13.6 5.2V6.57778C13.6 6.68823 13.5105 6.77778 13.4 6.77778H12.2C12.0895 6.77778 12 6.68823 12 6.57778V5.2C12 5.08954 11.9105 5 11.8 5H10.6C10.4895 5 10.4 5.08954 10.4 5.2V6.57778C10.4 6.68823 10.3105 6.77778 10.2 6.77778H8.2C8.08954 6.77778 8 6.86732 8 6.97778V8.35556C8 8.46601 8.08954 8.55556 8.2 8.55556H9.4C9.51046 8.55556 9.6 8.6451 9.6 8.75556V13.8889ZM14.8 17.4444H11.4C11.2895 17.4444 11.2 17.3549 11.2 17.2444V14.0889C11.2 13.9784 11.2895 13.8889 11.4 13.8889H14.8C15.6824 13.8889 16.4 14.6862 16.4 15.6667C16.4 16.6471 15.6824 17.4444 14.8 17.4444ZM11.2 8.75556C11.2 8.6451 11.2895 8.55556 11.4 8.55556H14.4C15.2824 8.55556 16 9.35289 16 10.3333C16 11.3138 15.2824 12.1111 14.4 12.1111H11.4C11.2895 12.1111 11.2 12.0216 11.2 11.9111V8.75556Z" fill="#FBBC1B"/>
<path d="M16.0674 1.29766C16.1938 0.815605 16.6883 0.524228 17.1604 0.683711C18.602 1.17066 19.9491 1.9077 21.1392 2.86326C22.5642 4.00745 23.7319 5.43922 24.5662 7.06517C25.4005 8.69111 25.8826 10.4747 25.9811 12.2995C26.0796 14.1244 25.7922 15.9495 25.1377 17.6558C24.4832 19.3621 23.4763 20.9112 22.1827 22.202C20.8891 23.4929 19.3379 24.4966 17.6302 25.1475C15.9226 25.7984 14.0969 26.0819 12.2722 25.9796C10.7484 25.8942 9.25391 25.5412 7.85651 24.9392C7.39884 24.742 7.22604 24.1947 7.45448 23.7518C7.68291 23.3089 8.22598 23.1387 8.68583 23.3307C9.856 23.8194 11.1028 24.1066 12.3733 24.1778C13.9446 24.2659 15.5169 24.0217 16.9875 23.4612C18.4581 22.9006 19.794 22.0363 20.908 20.9246C22.022 19.813 22.8891 18.4789 23.4528 17.0095C24.0164 15.54 24.2639 13.9683 24.1791 12.3968C24.0943 10.8253 23.6791 9.28926 22.9606 7.88903C22.2421 6.4888 21.2365 5.25578 20.0093 4.27043C19.0171 3.47374 17.8981 2.85344 16.7013 2.43419C16.231 2.26943 15.9411 1.77971 16.0674 1.29766Z" fill="url(#paint0_linear_3682_2853)"/>
<path d="M9.08913 24.4481C8.92803 24.9197 8.41363 25.1743 7.95436 24.9809C6.59206 24.4072 5.33549 23.6044 4.24005 22.6054C2.92202 21.4034 1.86548 19.9429 1.13616 18.315C0.406848 16.6871 0.020372 14.9265 0.000783807 13.1428C-0.0188044 11.359 0.328915 9.59036 1.0223 7.94681C1.71569 6.30325 2.73991 4.81999 4.03122 3.58931C5.32254 2.35864 6.85331 1.40689 8.52829 0.793288C10.2033 0.17969 11.9866 -0.0826254 13.7673 0.0226656C15.2473 0.110175 16.6992 0.450054 18.0607 1.02549C18.5198 1.21949 18.6964 1.76562 18.471 2.21009C18.2456 2.65455 17.7037 2.82851 17.2426 2.63966C16.1036 2.17325 14.8935 1.89705 13.6608 1.82416C12.1273 1.73348 10.5915 1.95938 9.14905 2.4878C7.70659 3.01622 6.38831 3.83585 5.27625 4.89569C4.1642 5.95552 3.28216 7.23288 2.68503 8.64828C2.08789 10.0637 1.78844 11.5868 1.80531 13.1229C1.82218 14.659 2.15501 16.1752 2.78308 17.5772C3.41115 18.9791 4.32103 20.2368 5.45609 21.272C6.36852 22.1041 7.41075 22.7781 8.53962 23.2685C8.9967 23.467 9.25023 23.9765 9.08913 24.4481Z" fill="url(#paint1_linear_3682_2853)"/>
<defs>
<linearGradient id="paint0_linear_3682_2853" x1="14.5" y1="27" x2="30" y2="4.5" gradientUnits="userSpaceOnUse">
<stop stop-color="#FBBC1B"/>
<stop offset="1" stop-color="#FBBC1B" stop-opacity="0"/>
</linearGradient>
<linearGradient id="paint1_linear_3682_2853" x1="16" y1="0.5" x2="-0.5" y2="29" gradientUnits="userSpaceOnUse">
<stop stop-color="#FBBC1B"/>
<stop offset="1" stop-color="#FBBC1B" stop-opacity="0"/>
</linearGradient>
</defs>
</svg>
