<svg width="26" height="26" viewBox="0 0 26 26" fill="none" xmlns="http://www.w3.org/2000/svg">
<path d="M16.0674 1.29766C16.1938 0.815605 16.6883 0.524228 17.1604 0.683711C18.602 1.17066 19.9491 1.9077 21.1392 2.86326C22.5642 4.00745 23.7319 5.43922 24.5662 7.06517C25.4005 8.69111 25.8826 10.4747 25.9811 12.2995C26.0796 14.1244 25.7922 15.9495 25.1377 17.6558C24.4832 19.3621 23.4763 20.9112 22.1827 22.202C20.8891 23.4929 19.3379 24.4966 17.6302 25.1475C15.9226 25.7984 14.0969 26.0819 12.2722 25.9796C10.7484 25.8942 9.25391 25.5412 7.85651 24.9392C7.39884 24.742 7.22604 24.1947 7.45448 23.7518C7.68291 23.3089 8.22598 23.1387 8.68583 23.3307C9.856 23.8194 11.1028 24.1066 12.3733 24.1778C13.9446 24.2659 15.5169 24.0217 16.9875 23.4612C18.4581 22.9006 19.794 22.0363 20.908 20.9246C22.022 19.813 22.8891 18.4789 23.4528 17.0095C24.0164 15.54 24.2639 13.9683 24.1791 12.3968C24.0943 10.8253 23.6791 9.28926 22.9606 7.88903C22.2421 6.4888 21.2365 5.25578 20.0093 4.27043C19.0171 3.47374 17.8981 2.85344 16.7013 2.43419C16.231 2.26943 15.9411 1.77971 16.0674 1.29766Z" fill="url(#paint0_linear_3682_2861)"/>
<path d="M9.08913 24.4481C8.92803 24.9197 8.41363 25.1743 7.95436 24.9809C6.59279 24.4075 5.33683 23.6053 4.2418 22.607C2.92414 21.4057 1.86768 19.9463 1.1381 18.3193C0.408518 16.6924 0.0214168 14.9328 0.000863702 13.1499C-0.0196894 11.3669 0.326745 9.59885 1.01863 7.95553C1.71051 6.31221 2.73305 4.82878 4.02266 3.59748C5.31228 2.36618 6.8414 1.41333 8.51496 0.798179C10.1885 0.183027 11.9707 -0.0812775 13.7508 0.0216984C15.2301 0.107276 16.6816 0.444988 18.0433 1.01813C18.5026 1.21146 18.68 1.75734 18.4553 2.20213C18.2305 2.64693 17.6889 2.82167 17.2275 2.63349C16.0885 2.169 14.8787 1.8946 13.6466 1.82332C12.1136 1.73464 10.5788 1.96226 9.13757 2.49202C7.69633 3.02177 6.37948 3.84235 5.26888 4.90272C4.15829 5.96309 3.2777 7.24059 2.68186 8.65579C2.08602 10.071 1.78768 11.5936 1.80538 13.129C1.82308 14.6645 2.15645 16.1798 2.78475 17.5809C3.41305 18.982 4.32285 20.2389 5.4576 21.2733C6.36967 22.1048 7.41138 22.7784 8.53962 23.2685C8.9967 23.467 9.25023 23.9765 9.08913 24.4481Z" fill="url(#paint1_linear_3682_2861)"/>
<path d="M16.9962 15.5793L16.9968 15.6407C16.9978 16.4902 16.6924 17.309 16.1411 17.9349L16.143 17.9323C15.5688 18.5912 14.7921 19.0213 13.9466 19.1484L13.9267 19.1511V20.7246C13.9267 20.7977 13.8989 20.8677 13.8493 20.9193C13.7997 20.971 13.7325 21 13.6624 21H13.6515H13.6522H12.4957C12.4231 20.9991 12.3538 20.9687 12.3025 20.9153C12.2512 20.8618 12.222 20.7896 12.2211 20.714V19.1511C11.8355 19.0974 11.4565 19.0004 11.0909 18.8617L11.1287 18.8744C10.5825 18.6841 10.0701 18.4016 9.61186 18.0383L9.62466 18.0483C9.48469 17.9428 9.35031 17.8295 9.2221 17.7089L9.22658 17.7129C9.15533 17.6418 9.10541 17.5885 9.07682 17.5529C9.03055 17.505 9.00323 17.4407 9.00027 17.3728C8.99731 17.3049 9.01891 17.2383 9.06082 17.1862L9.06018 17.1869L9.94274 15.9814C9.96619 15.9499 9.99588 15.9241 10.0298 15.9057C10.0637 15.8873 10.101 15.8767 10.1392 15.8747H10.1399C10.1778 15.8674 10.2169 15.8711 10.253 15.8853C10.2891 15.8995 10.3208 15.9238 10.3447 15.9554L10.3453 15.956L10.3619 15.9734C10.9406 16.5254 11.6488 16.9085 12.4151 17.0842L12.4445 17.0902C12.6352 17.1355 12.8541 17.1615 13.0787 17.1615L13.1184 17.1622C13.5606 17.1622 13.9702 17.0182 14.3075 16.7728L14.3005 16.7775C14.4706 16.6577 14.6084 16.4944 14.7007 16.3033C14.793 16.1123 14.8368 15.8997 14.8278 15.686V15.6887C14.8278 15.5133 14.7798 15.35 14.6973 15.2119L14.6992 15.2159C14.6212 15.0783 14.5249 14.9528 14.4131 14.8432L14.4125 14.8426C14.2637 14.7126 14.1001 14.6022 13.9254 14.5139L13.9114 14.5072C13.6827 14.3854 13.4949 14.2901 13.3482 14.2212C13.2014 14.1523 12.9729 14.0556 12.6627 13.9311C12.44 13.836 12.2642 13.7615 12.1354 13.7078C12.0065 13.654 11.8307 13.5751 11.608 13.4711C11.3853 13.367 11.2067 13.2748 11.0723 13.1944C10.9379 13.1139 10.7764 13.0083 10.5879 12.8777C10.4226 12.7668 10.2681 12.6395 10.1264 12.4976L10.1271 12.4983C9.99845 12.3627 9.87669 12.2203 9.76226 12.0716L9.75394 12.0609C9.63274 11.9078 9.53218 11.7382 9.45506 11.5568L9.44994 11.5428C9.3756 11.3587 9.31672 11.1682 9.27394 10.9734L9.26946 10.9494C9.22049 10.7259 9.19602 10.4973 9.1965 10.268V10.252V10.232C9.1965 9.39855 9.51714 8.64246 10.0375 8.09172L10.0368 8.09239C10.6168 7.46423 11.3747 7.04619 12.1994 6.89957L12.2224 6.89624V5.28604V5.28337C12.2224 5.20536 12.2538 5.13468 12.3037 5.08468C12.3284 5.0579 12.358 5.0366 12.3907 5.02205C12.4235 5.00749 12.4588 5 12.4944 5H13.6637C13.8096 5 13.928 5.12335 13.928 5.27537V5.2867V5.28604V6.85757C14.28 6.89624 14.6013 6.96891 14.9091 7.07293L14.8752 7.06292C15.169 7.15627 15.416 7.25828 15.6534 7.37696L15.6202 7.3623C15.8301 7.47098 16.0086 7.58232 16.1776 7.70634L16.1648 7.697C16.3355 7.82235 16.4468 7.90859 16.4989 7.9557C16.5509 8.00282 16.5938 8.04438 16.6275 8.08039C16.6736 8.12167 16.7033 8.17922 16.7111 8.24198C16.7189 8.30474 16.7042 8.36829 16.6698 8.42043L16.6704 8.41976L15.9779 9.72392C15.9606 9.76401 15.9332 9.79846 15.8986 9.82359C15.864 9.84872 15.8235 9.86358 15.7814 9.86661H15.7808C15.7402 9.87541 15.6981 9.87434 15.6579 9.86347C15.6178 9.8526 15.5805 9.83223 15.5491 9.80393H15.5498C15.5327 9.78615 15.4913 9.75059 15.4256 9.69725C15.3599 9.64391 15.2485 9.56502 15.0915 9.46056C14.9392 9.35883 14.7808 9.2673 14.6173 9.18652L14.5904 9.17452C14.3934 9.08015 14.1886 9.0045 13.9786 8.94849L13.9517 8.94249C13.7131 8.87446 13.4669 8.83992 13.2195 8.83981H13.2189C12.7449 8.8172 12.2765 8.95369 11.8826 9.2292L11.8909 9.22386C11.673 9.37468 11.5109 9.59823 11.4311 9.85777C11.3513 10.1173 11.3586 10.3974 11.4519 10.652L11.4493 10.644C11.5082 10.7907 11.5939 10.9147 11.7015 11.0141L11.7027 11.0148C11.8058 11.1154 11.9159 11.2121 12.0311 11.3021L12.0413 11.3095C12.1789 11.4081 12.337 11.5008 12.5027 11.5782L12.5219 11.5862C12.7361 11.6902 12.9089 11.7706 13.0403 11.8275C13.1717 11.8844 13.3718 11.9662 13.6406 12.0729C13.9436 12.192 14.175 12.2858 14.335 12.3543C14.495 12.4227 14.7122 12.5269 14.9866 12.667C15.2177 12.78 15.4404 12.9108 15.6528 13.0583L15.6342 13.0463C15.8326 13.193 16.0054 13.3397 16.1699 13.4964L16.1661 13.4924C16.3434 13.6537 16.4944 13.8404 16.6147 14.0491L16.6205 14.0598C16.7267 14.2552 16.8182 14.4825 16.8848 14.7205L16.8906 14.7432C16.9603 14.9866 17 15.2666 17 15.556V15.584V15.5827L16.9962 15.5793Z" fill="#FBBC1B"/>
<defs>
<linearGradient id="paint0_linear_3682_2861" x1="14.5" y1="27" x2="30" y2="4.5" gradientUnits="userSpaceOnUse">
<stop stop-color="#FBBC1B"/>
<stop offset="1" stop-color="#FBBC1B" stop-opacity="0"/>
</linearGradient>
<linearGradient id="paint1_linear_3682_2861" x1="16" y1="0.5" x2="-0.5" y2="29" gradientUnits="userSpaceOnUse">
<stop stop-color="#FBBC1B"/>
<stop offset="1" stop-color="#FBBC1B" stop-opacity="0"/>
</linearGradient>
</defs>
</svg>
