<svg width="49" height="49" viewBox="0 0 49 49" fill="none" xmlns="http://www.w3.org/2000/svg">
<circle cx="24.5" cy="24.5" r="24.5" fill="#1F1E20"/>
<path fill-rule="evenodd" clip-rule="evenodd" d="M32.1354 23.0813C31.4878 22.3978 31.4878 21.2898 32.1354 20.6063C32.783 19.9229 33.8329 19.9229 34.4805 20.6063C35.1281 21.2898 35.1281 22.3978 34.4805 23.0813C33.8329 23.7647 32.783 23.7647 32.1354 23.0813ZM26.5656 28.9594C26.0799 28.4468 26.0799 27.6157 26.5656 27.1031C27.0513 26.5905 27.8388 26.5905 28.3245 27.1031C28.8102 27.6157 28.8102 28.4468 28.3245 28.9594C27.8388 29.4719 27.0513 29.4719 26.5656 28.9594ZM35.36 25.8656C34.8743 25.3531 34.8743 24.522 35.36 24.0094C35.8457 23.4968 36.6332 23.4968 37.1188 24.0094C37.6045 24.522 37.6045 25.3531 37.1188 25.8656C36.6332 26.3782 35.8457 26.3782 35.36 25.8656ZM32.4285 28.9594C31.9428 28.4468 31.9428 27.6157 32.4285 27.1031C32.9142 26.5905 33.7017 26.5905 34.1874 27.1031C34.6731 27.6157 34.6731 28.4468 34.1874 28.9594C33.7017 29.4719 32.9142 29.4719 32.4285 28.9594ZM38.5846 28.65C38.2608 28.3083 38.2608 27.7542 38.5846 27.4125C38.9084 27.0708 39.4334 27.0708 39.7572 27.4125C40.081 27.7542 40.081 28.3083 39.7572 28.65C39.4334 28.9917 38.9084 28.9917 38.5846 28.65ZM35.6531 31.7437C35.3293 31.402 35.3293 30.8479 35.6531 30.5062C35.9769 30.1645 36.5019 30.1645 36.8257 30.5062C37.1495 30.8479 37.1495 31.402 36.8257 31.7437C36.5019 32.0854 35.9769 32.0854 35.6531 31.7437ZM29.2039 26.175C28.5563 25.4916 28.5563 24.3835 29.2039 23.7C29.8515 23.0166 30.9015 23.0166 31.5491 23.7C32.1967 24.3835 32.1967 25.4916 31.5491 26.175C30.9015 26.8585 29.8515 26.8585 29.2039 26.175ZM29.2039 19.9876C28.5563 19.3041 28.5563 18.196 29.2039 17.5126C29.8515 16.8291 30.9015 16.8291 31.5491 17.5126C32.1967 18.196 32.1967 19.3041 31.5491 19.9876C30.9015 20.671 29.8515 20.671 29.2039 19.9876ZM26.2725 23.0813C25.6249 22.3978 25.6249 21.2898 26.2725 20.6063C26.9201 19.9229 27.9701 19.9229 28.6177 20.6063C29.2653 21.2898 29.2653 22.3978 28.6177 23.0813C27.9701 23.7647 26.9201 23.7647 26.2725 23.0813ZM20.3823 23.0813C19.7348 22.3978 19.7348 21.2898 20.3823 20.6063C21.0299 19.9229 22.0799 19.9229 22.7275 20.6063C23.3751 21.2898 23.3751 22.3978 22.7275 23.0813C22.0799 23.7647 21.0299 23.7647 20.3823 23.0813ZM14.8126 28.9594C14.3269 28.4468 14.3269 27.6157 14.8126 27.1031C15.2983 26.5905 16.0858 26.5905 16.5715 27.1031C17.0572 27.6157 17.0572 28.4468 16.5715 28.9594C16.0858 29.4719 15.2983 29.4719 14.8126 28.9594ZM23.6069 25.8656C23.1212 25.3531 23.1212 24.522 23.6069 24.0094C24.0926 23.4968 24.8801 23.4968 25.3658 24.0094C25.8515 24.522 25.8515 25.3531 25.3658 25.8656C24.8801 26.3782 24.0926 26.3782 23.6069 25.8656ZM20.6755 28.9594C20.1898 28.4468 20.1898 27.6157 20.6755 27.1031C21.1612 26.5905 21.9487 26.5905 22.4344 27.1031C22.9201 27.6157 22.9201 28.4468 22.4344 28.9594C21.9487 29.4719 21.1612 29.4719 20.6755 28.9594ZM9.24285 28.65C8.91905 28.3083 8.91905 27.7542 9.24285 27.4125C9.56665 27.0708 10.0916 27.0708 10.4154 27.4125C10.7392 27.7542 10.7392 28.3083 10.4154 28.65C10.0916 28.9917 9.56665 28.9917 9.24285 28.65ZM12.1743 31.7437C11.8505 31.402 11.8505 30.8479 12.1743 30.5062C12.4981 30.1645 13.0231 30.1645 13.3469 30.5062C13.6707 30.8479 13.6707 31.402 13.3469 31.7437C13.0231 32.0854 12.4981 32.0854 12.1743 31.7437ZM23.9001 31.7437C23.5763 31.402 23.5763 30.8479 23.9001 30.5062C24.2239 30.1645 24.7489 30.1645 25.0727 30.5062C25.3965 30.8479 25.3965 31.402 25.0727 31.7437C24.7489 32.0854 24.2239 32.0854 23.9001 31.7437ZM11.8812 25.8656C11.3955 25.3531 11.3955 24.522 11.8812 24.0094C12.3668 23.4968 13.1543 23.4968 13.64 24.0094C14.1257 24.522 14.1257 25.3531 13.64 25.8656C13.1543 26.3782 12.3668 26.3782 11.8812 25.8656ZM17.4509 26.175C16.8033 25.4916 16.8033 24.3835 17.4509 23.7C18.0985 23.0166 19.1485 23.0166 19.7961 23.7C20.4437 24.3835 20.4437 25.4916 19.7961 26.175C19.1485 26.8585 18.0985 26.8585 17.4509 26.175ZM17.4509 19.9876C16.8033 19.3041 16.8033 18.196 17.4509 17.5126C18.0985 16.8291 19.1485 16.8291 19.7961 17.5126C20.4437 18.196 20.4437 19.3041 19.7961 19.9876C19.1485 20.671 18.0985 20.671 17.4509 19.9876ZM14.5195 23.0813C13.8719 22.3978 13.8719 21.2898 14.5195 20.6063C15.1671 19.9229 16.217 19.9229 16.8646 20.6063C17.5122 21.2898 17.5122 22.3978 16.8646 23.0813C16.217 23.7647 15.1671 23.7647 14.5195 23.0813Z" fill="white"/>
</svg>
