<svg width="49" height="49" viewBox="0 0 49 49" fill="none" xmlns="http://www.w3.org/2000/svg">
<circle cx="24.5" cy="24.5" r="24.5" fill="#1F1E20"/>
<path fill-rule="evenodd" clip-rule="evenodd" d="M40 27.1102V29.4407C40 35.9661 29.8 39.6949 26.7 40.6271L25.6 41V36.9915L26.2 36.8051C31.1 35.1271 36 32.2373 36 29.4407V27.1102H40ZM24.5 8L28.7 9.21186V13.3136L24.5 12.1017L24.2 12.1949V21.4237H28.6V25.2458H24.2V40.9068L23 40.5339C22.5 40.3475 21.6 40.0678 20.5 39.6017L20 39.4153V9.21186L24.5 8ZM18.8 9.67797V13.7797L13.1 15.3644V21.4237H18.8V39.0424L17.5 38.4831C13.6 36.6186 9 33.5424 9 29.161V27.1102H13.1V29.161C13.1 30.0932 13.6 31.0254 14.6 31.9576V25.2458H9V12.3814L18.8 9.67797ZM29.9 9.58475L39.9 12.4746V25.339H34V30.9322C34 30.9322 32.7 32.5169 29.9 33.822C29.9 33.0763 29.9 21.7966 29.9 14.8983V9.58475ZM34.1 14.8051V21.4237H35.9V15.3644L34.1 14.8051Z" fill="white"/>
</svg>
